solid CATIA STL
  facet normal  0.000000e+000  0.000000e+000  9.999999e-001
    outer loop
      vertex -8.929235e-001  2.600997e+000  2.600000e+001
      vertex -4.526351e-001  2.712494e+000  2.600000e+001
      vertex -6.328176e-001  5.211721e+000  2.600000e+001
    endloop
  endfacet
  facet normal  0.000000e+000  0.000000e+000  1.000000e+000
    outer loop
      vertex -2.982340e+000 -4.320665e+000  2.600000e+001
      vertex -5.211721e+000 -6.328176e-001  2.600000e+001
      vertex -5.097445e+000 -1.256407e+000  2.600000e+001
    endloop
  endfacet
  facet normal  0.000000e+000  0.000000e+000  1.000000e+000
    outer loop
      vertex -2.982340e+000 -4.320665e+000  2.600000e+001
      vertex -5.097445e+000 -1.256407e+000  2.600000e+001
      vertex -4.908835e+000 -1.861676e+000  2.600000e+001
    endloop
  endfacet
  facet normal  0.000000e+000  0.000000e+000  9.999999e-001
    outer loop
      vertex -2.982340e+000 -4.320665e+000  2.600000e+001
      vertex -4.908835e+000 -1.861676e+000  2.600000e+001
      vertex -4.648644e+000 -2.439797e+000  2.600000e+001
    endloop
  endfacet
  facet normal  0.000000e+000  0.000000e+000  1.000000e+000
    outer loop
      vertex -2.982340e+000 -4.320665e+000  2.600000e+001
      vertex -4.648644e+000 -2.439797e+000  2.600000e+001
      vertex -4.320665e+000 -2.982340e+000  2.600000e+001
    endloop
  endfacet
  facet normal  0.000000e+000  0.000000e+000  1.000000e+000
    outer loop
      vertex -2.982340e+000 -4.320665e+000  2.600000e+001
      vertex -4.320665e+000 -2.982340e+000  2.600000e+001
      vertex -3.929682e+000 -3.481394e+000  2.600000e+001
    endloop
  endfacet
  facet normal  0.000000e+000  0.000000e+000  1.000000e+000
    outer loop
      vertex -2.982340e+000 -4.320665e+000  2.600000e+001
      vertex -3.929682e+000 -3.481394e+000  2.600000e+001
      vertex -3.481394e+000 -3.929682e+000  2.600000e+001
    endloop
  endfacet
  facet normal  0.000000e+000  -0.000000e+000  1.000000e+000
    outer loop
      vertex -2.740607e+000  2.270932e-001  2.600000e+001
      vertex -2.665851e+000  6.750851e-001  2.600000e+001
      vertex -2.439797e+000  4.648644e+000  2.600000e+001
    endloop
  endfacet
  facet normal  0.000000e+000  0.000000e+000  9.999999e-001
    outer loop
      vertex -2.740607e+000  2.270932e-001  2.600000e+001
      vertex -2.439797e+000  4.648644e+000  2.600000e+001
      vertex -2.982340e+000  4.320665e+000  2.600000e+001
    endloop
  endfacet
  facet normal  0.000000e+000  0.000000e+000  1.000000e+000
    outer loop
      vertex -2.740607e+000  2.270932e-001  2.600000e+001
      vertex -2.982340e+000  4.320665e+000  2.600000e+001
      vertex -3.481394e+000  3.929682e+000  2.600000e+001
    endloop
  endfacet
  facet normal  0.000000e+000  0.000000e+000  1.000000e+000
    outer loop
      vertex -2.740607e+000  2.270932e-001  2.600000e+001
      vertex -3.481394e+000  3.929682e+000  2.600000e+001
      vertex -3.929682e+000  3.481394e+000  2.600000e+001
    endloop
  endfacet
  facet normal  0.000000e+000  0.000000e+000  9.999999e-001
    outer loop
      vertex -2.740607e+000  2.270932e-001  2.600000e+001
      vertex -3.929682e+000  3.481394e+000  2.600000e+001
      vertex -4.320665e+000  2.982340e+000  2.600000e+001
    endloop
  endfacet
  facet normal  0.000000e+000  0.000000e+000  1.000000e+000
    outer loop
      vertex -2.740607e+000  2.270932e-001  2.600000e+001
      vertex -4.320665e+000  2.982340e+000  2.600000e+001
      vertex -4.648644e+000  2.439797e+000  2.600000e+001
    endloop
  endfacet
  facet normal  0.000000e+000  0.000000e+000  1.000000e+000
    outer loop
      vertex -2.740607e+000  2.270932e-001  2.600000e+001
      vertex -4.648644e+000  2.439797e+000  2.600000e+001
      vertex -4.908835e+000  1.861676e+000  2.600000e+001
    endloop
  endfacet
  facet normal  0.000000e+000  0.000000e+000  1.000000e+000
    outer loop
      vertex -2.740607e+000  2.270932e-001  2.600000e+001
      vertex -4.908835e+000  1.861676e+000  2.600000e+001
      vertex -5.097445e+000  1.256407e+000  2.600000e+001
    endloop
  endfacet
  facet normal  0.000000e+000  0.000000e+000  1.000000e+000
    outer loop
      vertex -2.740607e+000  2.270932e-001  2.600000e+001
      vertex -5.097445e+000  1.256407e+000  2.600000e+001
      vertex -5.211721e+000  6.328176e-001  2.600000e+001
    endloop
  endfacet
  facet normal  0.000000e+000  0.000000e+000  1.000000e+000
    outer loop
      vertex  5.250000e+000 -9.643775e-016  2.600000e+001
      vertex  5.211721e+000  6.328176e-001  2.600000e+001
      vertex  5.097445e+000  1.256407e+000  2.600000e+001
    endloop
  endfacet
  facet normal  0.000000e+000  0.000000e+000  1.000000e+000
    outer loop
      vertex  5.250000e+000 -9.643775e-016  2.600000e+001
      vertex  5.097445e+000  1.256407e+000  2.600000e+001
      vertex  4.908835e+000  1.861676e+000  2.600000e+001
    endloop
  endfacet
  facet normal  0.000000e+000  0.000000e+000  1.000000e+000
    outer loop
      vertex  5.250000e+000 -9.643775e-016  2.600000e+001
      vertex  4.908835e+000  1.861676e+000  2.600000e+001
      vertex  4.648644e+000  2.439797e+000  2.600000e+001
    endloop
  endfacet
  facet normal  0.000000e+000  0.000000e+000  1.000000e+000
    outer loop
      vertex  5.250000e+000 -9.643775e-016  2.600000e+001
      vertex  4.648644e+000  2.439797e+000  2.600000e+001
      vertex  4.320665e+000  2.982340e+000  2.600000e+001
    endloop
  endfacet
  facet normal  0.000000e+000  0.000000e+000  1.000000e+000
    outer loop
      vertex  5.250000e+000 -9.643775e-016  2.600000e+001
      vertex  4.320665e+000  2.982340e+000  2.600000e+001
      vertex  3.929682e+000  3.481394e+000  2.600000e+001
    endloop
  endfacet
  facet normal  0.000000e+000  0.000000e+000  1.000000e+000
    outer loop
      vertex  5.250000e+000 -9.643775e-016  2.600000e+001
      vertex  3.929682e+000  3.481394e+000  2.600000e+001
      vertex  3.481394e+000  3.929682e+000  2.600000e+001
    endloop
  endfacet
  facet normal  0.000000e+000  0.000000e+000  1.000000e+000
    outer loop
      vertex  5.250000e+000 -9.643775e-016  2.600000e+001
      vertex  3.481394e+000  3.929682e+000  2.600000e+001
      vertex  2.982340e+000  4.320665e+000  2.600000e+001
    endloop
  endfacet
  facet normal  0.000000e+000  0.000000e+000  1.000000e+000
    outer loop
      vertex  5.250000e+000 -9.643775e-016  2.600000e+001
      vertex  2.982340e+000  4.320665e+000  2.600000e+001
      vertex  2.740607e+000  2.270932e-001  2.600000e+001
    endloop
  endfacet
  facet normal  0.000000e+000  0.000000e+000  1.000000e+000
    outer loop
      vertex  5.250000e+000 -9.643775e-016  2.600000e+001
      vertex  2.740607e+000  2.270932e-001  2.600000e+001
      vertex  2.740607e+000 -2.270932e-001  2.600000e+001
    endloop
  endfacet
  facet normal  -0.000000e+000  0.000000e+000  1.000000e+000
    outer loop
      vertex  5.250000e+000 -9.643775e-016  2.600000e+001
      vertex  2.740607e+000 -2.270932e-001  2.600000e+001
      vertex  2.982340e+000 -4.320665e+000  2.600000e+001
    endloop
  endfacet
  facet normal  0.000000e+000  0.000000e+000  1.000000e+000
    outer loop
      vertex  5.250000e+000 -9.643775e-016  2.600000e+001
      vertex  2.982340e+000 -4.320665e+000  2.600000e+001
      vertex  3.481394e+000 -3.929682e+000  2.600000e+001
    endloop
  endfacet
  facet normal  0.000000e+000  0.000000e+000  1.000000e+000
    outer loop
      vertex  5.250000e+000 -9.643775e-016  2.600000e+001
      vertex  3.481394e+000 -3.929682e+000  2.600000e+001
      vertex  3.929682e+000 -3.481394e+000  2.600000e+001
    endloop
  endfacet
  facet normal  0.000000e+000  0.000000e+000  1.000000e+000
    outer loop
      vertex  5.250000e+000 -9.643775e-016  2.600000e+001
      vertex  3.929682e+000 -3.481394e+000  2.600000e+001
      vertex  4.320665e+000 -2.982340e+000  2.600000e+001
    endloop
  endfacet
  facet normal  0.000000e+000  0.000000e+000  1.000000e+000
    outer loop
      vertex  5.250000e+000 -9.643775e-016  2.600000e+001
      vertex  4.320665e+000 -2.982340e+000  2.600000e+001
      vertex  4.648644e+000 -2.439797e+000  2.600000e+001
    endloop
  endfacet
  facet normal  0.000000e+000  0.000000e+000  1.000000e+000
    outer loop
      vertex  5.250000e+000 -9.643775e-016  2.600000e+001
      vertex  4.648644e+000 -2.439797e+000  2.600000e+001
      vertex  4.908835e+000 -1.861676e+000  2.600000e+001
    endloop
  endfacet
  facet normal  0.000000e+000  0.000000e+000  1.000000e+000
    outer loop
      vertex  5.250000e+000 -9.643775e-016  2.600000e+001
      vertex  4.908835e+000 -1.861676e+000  2.600000e+001
      vertex  5.097445e+000 -1.256407e+000  2.600000e+001
    endloop
  endfacet
  facet normal  0.000000e+000  0.000000e+000  1.000000e+000
    outer loop
      vertex  5.250000e+000 -9.643775e-016  2.600000e+001
      vertex  5.097445e+000 -1.256407e+000  2.600000e+001
      vertex  5.211721e+000 -6.328176e-001  2.600000e+001
    endloop
  endfacet
  facet normal  0.000000e+000  0.000000e+000  1.000000e+000
    outer loop
      vertex  2.982340e+000 -4.320665e+000  2.600000e+001
      vertex  2.740607e+000 -2.270932e-001  2.600000e+001
      vertex  2.665851e+000 -6.750851e-001  2.600000e+001
    endloop
  endfacet
  facet normal  0.000000e+000  0.000000e+000  1.000000e+000
    outer loop
      vertex  2.982340e+000 -4.320665e+000  2.600000e+001
      vertex  2.665851e+000 -6.750851e-001  2.600000e+001
      vertex  2.518377e+000 -1.104662e+000  2.600000e+001
    endloop
  endfacet
  facet normal  0.000000e+000  0.000000e+000  1.000000e+000
    outer loop
      vertex  2.982340e+000 -4.320665e+000  2.600000e+001
      vertex  2.518377e+000 -1.104662e+000  2.600000e+001
      vertex  2.439797e+000 -4.648644e+000  2.600000e+001
    endloop
  endfacet
  facet normal  0.000000e+000  0.000000e+000  1.000000e+000
    outer loop
      vertex  2.982340e+000  4.320665e+000  2.600000e+001
      vertex  2.439797e+000  4.648644e+000  2.600000e+001
      vertex  2.518377e+000  1.104662e+000  2.600000e+001
    endloop
  endfacet
  facet normal  -0.000000e+000  0.000000e+000  1.000000e+000
    outer loop
      vertex  2.982340e+000  4.320665e+000  2.600000e+001
      vertex  2.518377e+000  1.104662e+000  2.600000e+001
      vertex  2.665851e+000  6.750851e-001  2.600000e+001
    endloop
  endfacet
  facet normal  -0.000000e+000  0.000000e+000  1.000000e+000
    outer loop
      vertex  2.982340e+000  4.320665e+000  2.600000e+001
      vertex  2.665851e+000  6.750851e-001  2.600000e+001
      vertex  2.740607e+000  2.270932e-001  2.600000e+001
    endloop
  endfacet
  facet normal  0.000000e+000  0.000000e+000  1.000000e+000
    outer loop
      vertex -2.740607e+000  2.270932e-001  2.600000e+001
      vertex -5.211721e+000  6.328176e-001  2.600000e+001
      vertex -2.740607e+000 -2.270932e-001  2.600000e+001
    endloop
  endfacet
  facet normal  0.000000e+000  0.000000e+000  1.000000e+000
    outer loop
      vertex -2.740607e+000 -2.270932e-001  2.600000e+001
      vertex -5.211721e+000  6.328176e-001  2.600000e+001
      vertex -5.250000e+000  3.214592e-016  2.600000e+001
    endloop
  endfacet
  facet normal  0.000000e+000  0.000000e+000  1.000000e+000
    outer loop
      vertex -2.740607e+000 -2.270932e-001  2.600000e+001
      vertex -5.250000e+000  3.214592e-016  2.600000e+001
      vertex -2.982340e+000 -4.320665e+000  2.600000e+001
    endloop
  endfacet
  facet normal  0.000000e+000  0.000000e+000  1.000000e+000
    outer loop
      vertex -2.982340e+000 -4.320665e+000  2.600000e+001
      vertex -5.250000e+000  3.214592e-016  2.600000e+001
      vertex -5.211721e+000 -6.328176e-001  2.600000e+001
    endloop
  endfacet
  facet normal  0.000000e+000  0.000000e+000  1.000000e+000
    outer loop
      vertex -2.740607e+000 -2.270932e-001  2.600000e+001
      vertex -2.982340e+000 -4.320665e+000  2.600000e+001
      vertex -2.665851e+000 -6.750851e-001  2.600000e+001
    endloop
  endfacet
  facet normal  0.000000e+000  0.000000e+000  1.000000e+000
    outer loop
      vertex -2.665851e+000 -6.750851e-001  2.600000e+001
      vertex -2.982340e+000 -4.320665e+000  2.600000e+001
      vertex -2.439797e+000 -4.648644e+000  2.600000e+001
    endloop
  endfacet
  facet normal  0.000000e+000  0.000000e+000  9.999999e-001
    outer loop
      vertex -2.665851e+000 -6.750851e-001  2.600000e+001
      vertex -2.439797e+000 -4.648644e+000  2.600000e+001
      vertex -2.518377e+000 -1.104662e+000  2.600000e+001
    endloop
  endfacet
  facet normal  0.000000e+000  -0.000000e+000  1.000000e+000
    outer loop
      vertex -2.518377e+000 -1.104662e+000  2.600000e+001
      vertex -2.439797e+000 -4.648644e+000  2.600000e+001
      vertex -2.302208e+000 -1.504107e+000  2.600000e+001
    endloop
  endfacet
  facet normal  0.000000e+000  0.000000e+000  1.000000e+000
    outer loop
      vertex -2.302208e+000 -1.504107e+000  2.600000e+001
      vertex -2.439797e+000 -4.648644e+000  2.600000e+001
      vertex -1.861676e+000 -4.908835e+000  2.600000e+001
    endloop
  endfacet
  facet normal  0.000000e+000  0.000000e+000  1.000000e+000
    outer loop
      vertex -2.302208e+000 -1.504107e+000  2.600000e+001
      vertex -1.861676e+000 -4.908835e+000  2.600000e+001
      vertex -2.023241e+000 -1.862524e+000  2.600000e+001
    endloop
  endfacet
  facet normal  0.000000e+000  -0.000000e+000  9.999999e-001
    outer loop
      vertex -2.023241e+000 -1.862524e+000  2.600000e+001
      vertex -1.861676e+000 -4.908835e+000  2.600000e+001
      vertex -1.689085e+000 -2.170136e+000  2.600000e+001
    endloop
  endfacet
  facet normal  0.000000e+000  0.000000e+000  1.000000e+000
    outer loop
      vertex -1.689085e+000 -2.170136e+000  2.600000e+001
      vertex -1.861676e+000 -4.908835e+000  2.600000e+001
      vertex -1.256407e+000 -5.097445e+000  2.600000e+001
    endloop
  endfacet
  facet normal  0.000000e+000  0.000000e+000  1.000000e+000
    outer loop
      vertex -1.689085e+000 -2.170136e+000  2.600000e+001
      vertex -1.256407e+000 -5.097445e+000  2.600000e+001
      vertex -1.308855e+000 -2.418553e+000  2.600000e+001
    endloop
  endfacet
  facet normal  0.000000e+000  -0.000000e+000  1.000000e+000
    outer loop
      vertex -1.308855e+000 -2.418553e+000  2.600000e+001
      vertex -1.256407e+000 -5.097445e+000  2.600000e+001
      vertex -8.929235e-001 -2.600997e+000  2.600000e+001
    endloop
  endfacet
  facet normal  0.000000e+000  0.000000e+000  1.000000e+000
    outer loop
      vertex -8.929235e-001 -2.600997e+000  2.600000e+001
      vertex -1.256407e+000 -5.097445e+000  2.600000e+001
      vertex -6.328176e-001 -5.211721e+000  2.600000e+001
    endloop
  endfacet
  facet normal  0.000000e+000  -0.000000e+000  9.999999e-001
    outer loop
      vertex -8.929235e-001 -2.600997e+000  2.600000e+001
      vertex -6.328176e-001 -5.211721e+000  2.600000e+001
      vertex -4.526351e-001 -2.712494e+000  2.600000e+001
    endloop
  endfacet
  facet normal  0.000000e+000  0.000000e+000  1.000000e+000
    outer loop
      vertex -4.526351e-001 -2.712494e+000  2.600000e+001
      vertex -6.328176e-001 -5.211721e+000  2.600000e+001
      vertex -1.558012e-015 -2.750000e+000  2.600000e+001
    endloop
  endfacet
  facet normal  0.000000e+000  0.000000e+000  1.000000e+000
    outer loop
      vertex -1.558012e-015 -2.750000e+000  2.600000e+001
      vertex -6.328176e-001 -5.211721e+000  2.600000e+001
      vertex -6.429183e-016 -5.250000e+000  2.600000e+001
    endloop
  endfacet
  facet normal  0.000000e+000  -0.000000e+000  1.000000e+000
    outer loop
      vertex -1.558012e-015 -2.750000e+000  2.600000e+001
      vertex -6.429183e-016 -5.250000e+000  2.600000e+001
      vertex  4.526351e-001 -2.712494e+000  2.600000e+001
    endloop
  endfacet
  facet normal  0.000000e+000  0.000000e+000  1.000000e+000
    outer loop
      vertex  4.526351e-001 -2.712494e+000  2.600000e+001
      vertex -6.429183e-016 -5.250000e+000  2.600000e+001
      vertex  6.328176e-001 -5.211721e+000  2.600000e+001
    endloop
  endfacet
  facet normal  0.000000e+000  -0.000000e+000  9.999999e-001
    outer loop
      vertex  4.526351e-001 -2.712494e+000  2.600000e+001
      vertex  6.328176e-001 -5.211721e+000  2.600000e+001
      vertex  8.929235e-001 -2.600997e+000  2.600000e+001
    endloop
  endfacet
  facet normal  0.000000e+000  0.000000e+000  1.000000e+000
    outer loop
      vertex  8.929235e-001 -2.600997e+000  2.600000e+001
      vertex  6.328176e-001 -5.211721e+000  2.600000e+001
      vertex  1.256407e+000 -5.097445e+000  2.600000e+001
    endloop
  endfacet
  facet normal  0.000000e+000  -0.000000e+000  1.000000e+000
    outer loop
      vertex  8.929235e-001 -2.600997e+000  2.600000e+001
      vertex  1.256407e+000 -5.097445e+000  2.600000e+001
      vertex  1.308855e+000 -2.418553e+000  2.600000e+001
    endloop
  endfacet
  facet normal  0.000000e+000  0.000000e+000  1.000000e+000
    outer loop
      vertex  1.308855e+000 -2.418553e+000  2.600000e+001
      vertex  1.256407e+000 -5.097445e+000  2.600000e+001
      vertex  1.689085e+000 -2.170136e+000  2.600000e+001
    endloop
  endfacet
  facet normal  0.000000e+000  0.000000e+000  1.000000e+000
    outer loop
      vertex  1.689085e+000 -2.170136e+000  2.600000e+001
      vertex  1.256407e+000 -5.097445e+000  2.600000e+001
      vertex  1.861676e+000 -4.908835e+000  2.600000e+001
    endloop
  endfacet
  facet normal  0.000000e+000  -0.000000e+000  9.999999e-001
    outer loop
      vertex  1.689085e+000 -2.170136e+000  2.600000e+001
      vertex  1.861676e+000 -4.908835e+000  2.600000e+001
      vertex  2.023241e+000 -1.862524e+000  2.600000e+001
    endloop
  endfacet
  facet normal  0.000000e+000  0.000000e+000  1.000000e+000
    outer loop
      vertex  2.023241e+000 -1.862524e+000  2.600000e+001
      vertex  1.861676e+000 -4.908835e+000  2.600000e+001
      vertex  2.302208e+000 -1.504107e+000  2.600000e+001
    endloop
  endfacet
  facet normal  0.000000e+000  0.000000e+000  1.000000e+000
    outer loop
      vertex  2.302208e+000 -1.504107e+000  2.600000e+001
      vertex  1.861676e+000 -4.908835e+000  2.600000e+001
      vertex  2.439797e+000 -4.648644e+000  2.600000e+001
    endloop
  endfacet
  facet normal  0.000000e+000  -0.000000e+000  1.000000e+000
    outer loop
      vertex  2.302208e+000 -1.504107e+000  2.600000e+001
      vertex  2.439797e+000 -4.648644e+000  2.600000e+001
      vertex  2.518377e+000 -1.104662e+000  2.600000e+001
    endloop
  endfacet
  facet normal  0.000000e+000  0.000000e+000  1.000000e+000
    outer loop
      vertex -2.302208e+000  1.504107e+000  2.600000e+001
      vertex -1.861676e+000  4.908835e+000  2.600000e+001
      vertex -2.518377e+000  1.104662e+000  2.600000e+001
    endloop
  endfacet
  facet normal  0.000000e+000  0.000000e+000  1.000000e+000
    outer loop
      vertex -2.518377e+000  1.104662e+000  2.600000e+001
      vertex -1.861676e+000  4.908835e+000  2.600000e+001
      vertex -2.439797e+000  4.648644e+000  2.600000e+001
    endloop
  endfacet
  facet normal  0.000000e+000  0.000000e+000  9.999999e-001
    outer loop
      vertex -2.518377e+000  1.104662e+000  2.600000e+001
      vertex -2.439797e+000  4.648644e+000  2.600000e+001
      vertex -2.665851e+000  6.750851e-001  2.600000e+001
    endloop
  endfacet
  facet normal  0.000000e+000  0.000000e+000  1.000000e+000
    outer loop
      vertex -1.689085e+000  2.170136e+000  2.600000e+001
      vertex -1.256407e+000  5.097445e+000  2.600000e+001
      vertex -2.023241e+000  1.862524e+000  2.600000e+001
    endloop
  endfacet
  facet normal  0.000000e+000  0.000000e+000  9.999999e-001
    outer loop
      vertex -2.023241e+000  1.862524e+000  2.600000e+001
      vertex -1.256407e+000  5.097445e+000  2.600000e+001
      vertex -1.861676e+000  4.908835e+000  2.600000e+001
    endloop
  endfacet
  facet normal  0.000000e+000  0.000000e+000  1.000000e+000
    outer loop
      vertex -2.023241e+000  1.862524e+000  2.600000e+001
      vertex -1.861676e+000  4.908835e+000  2.600000e+001
      vertex -2.302208e+000  1.504107e+000  2.600000e+001
    endloop
  endfacet
  facet normal  0.000000e+000  0.000000e+000  1.000000e+000
    outer loop
      vertex -8.929235e-001  2.600997e+000  2.600000e+001
      vertex -6.328176e-001  5.211721e+000  2.600000e+001
      vertex -1.308855e+000  2.418553e+000  2.600000e+001
    endloop
  endfacet
  facet normal  0.000000e+000  0.000000e+000  1.000000e+000
    outer loop
      vertex -1.308855e+000  2.418553e+000  2.600000e+001
      vertex -6.328176e-001  5.211721e+000  2.600000e+001
      vertex -1.256407e+000  5.097445e+000  2.600000e+001
    endloop
  endfacet
  facet normal  0.000000e+000  0.000000e+000  1.000000e+000
    outer loop
      vertex -1.308855e+000  2.418553e+000  2.600000e+001
      vertex -1.256407e+000  5.097445e+000  2.600000e+001
      vertex -1.689085e+000  2.170136e+000  2.600000e+001
    endloop
  endfacet
  facet normal  0.000000e+000  -0.000000e+000  1.000000e+000
    outer loop
      vertex -6.328176e-001  5.211721e+000  2.600000e+001
      vertex -4.526351e-001  2.712494e+000  2.600000e+001
      vertex  0.000000e+000  5.250000e+000  2.600000e+001
    endloop
  endfacet
  facet normal  0.000000e+000  0.000000e+000  1.000000e+000
    outer loop
      vertex  0.000000e+000  5.250000e+000  2.600000e+001
      vertex -4.526351e-001  2.712494e+000  2.600000e+001
      vertex  0.000000e+000  2.750000e+000  2.600000e+001
    endloop
  endfacet
  facet normal  0.000000e+000  0.000000e+000  1.000000e+000
    outer loop
      vertex  0.000000e+000  5.250000e+000  2.600000e+001
      vertex  0.000000e+000  2.750000e+000  2.600000e+001
      vertex  6.328176e-001  5.211721e+000  2.600000e+001
    endloop
  endfacet
  facet normal  0.000000e+000  0.000000e+000  1.000000e+000
    outer loop
      vertex  6.328176e-001  5.211721e+000  2.600000e+001
      vertex  0.000000e+000  2.750000e+000  2.600000e+001
      vertex  4.526351e-001  2.712494e+000  2.600000e+001
    endloop
  endfacet
  facet normal  0.000000e+000  0.000000e+000  1.000000e+000
    outer loop
      vertex  6.328176e-001  5.211721e+000  2.600000e+001
      vertex  4.526351e-001  2.712494e+000  2.600000e+001
      vertex  1.256407e+000  5.097445e+000  2.600000e+001
    endloop
  endfacet
  facet normal  0.000000e+000  0.000000e+000  1.000000e+000
    outer loop
      vertex  1.256407e+000  5.097445e+000  2.600000e+001
      vertex  4.526351e-001  2.712494e+000  2.600000e+001
      vertex  8.929235e-001  2.600997e+000  2.600000e+001
    endloop
  endfacet
  facet normal  -0.000000e+000  0.000000e+000  1.000000e+000
    outer loop
      vertex  1.256407e+000  5.097445e+000  2.600000e+001
      vertex  8.929235e-001  2.600997e+000  2.600000e+001
      vertex  1.308855e+000  2.418553e+000  2.600000e+001
    endloop
  endfacet
  facet normal  0.000000e+000  -0.000000e+000  1.000000e+000
    outer loop
      vertex  1.256407e+000  5.097445e+000  2.600000e+001
      vertex  1.308855e+000  2.418553e+000  2.600000e+001
      vertex  1.861676e+000  4.908835e+000  2.600000e+001
    endloop
  endfacet
  facet normal  0.000000e+000  0.000000e+000  1.000000e+000
    outer loop
      vertex  1.861676e+000  4.908835e+000  2.600000e+001
      vertex  1.308855e+000  2.418553e+000  2.600000e+001
      vertex  1.689085e+000  2.170136e+000  2.600000e+001
    endloop
  endfacet
  facet normal  -0.000000e+000  0.000000e+000  9.999999e-001
    outer loop
      vertex  1.861676e+000  4.908835e+000  2.600000e+001
      vertex  1.689085e+000  2.170136e+000  2.600000e+001
      vertex  2.023241e+000  1.862524e+000  2.600000e+001
    endloop
  endfacet
  facet normal  0.000000e+000  -0.000000e+000  1.000000e+000
    outer loop
      vertex  1.861676e+000  4.908835e+000  2.600000e+001
      vertex  2.023241e+000  1.862524e+000  2.600000e+001
      vertex  2.439797e+000  4.648644e+000  2.600000e+001
    endloop
  endfacet
  facet normal  0.000000e+000  0.000000e+000  9.999999e-001
    outer loop
      vertex  2.439797e+000  4.648644e+000  2.600000e+001
      vertex  2.023241e+000  1.862524e+000  2.600000e+001
      vertex  2.302208e+000  1.504107e+000  2.600000e+001
    endloop
  endfacet
  facet normal  -0.000000e+000  0.000000e+000  1.000000e+000
    outer loop
      vertex  2.439797e+000  4.648644e+000  2.600000e+001
      vertex  2.302208e+000  1.504107e+000  2.600000e+001
      vertex  2.518377e+000  1.104662e+000  2.600000e+001
    endloop
  endfacet
  facet normal  -0.000000e+000  0.000000e+000 -9.999999e-001
    outer loop
      vertex -6.328176e-001  5.211721e+000  0.000000e+000
      vertex -4.526351e-001  2.712494e+000  0.000000e+000
      vertex -8.929235e-001  2.600997e+000  0.000000e+000
    endloop
  endfacet
  facet normal  0.000000e+000  0.000000e+000 -1.000000e+000
    outer loop
      vertex -2.982340e+000 -4.320665e+000  0.000000e+000
      vertex -3.481394e+000 -3.929682e+000  0.000000e+000
      vertex -3.929682e+000 -3.481394e+000  0.000000e+000
    endloop
  endfacet
  facet normal  0.000000e+000  0.000000e+000 -1.000000e+000
    outer loop
      vertex -2.982340e+000 -4.320665e+000  0.000000e+000
      vertex -3.929682e+000 -3.481394e+000  0.000000e+000
      vertex -4.320665e+000 -2.982340e+000  0.000000e+000
    endloop
  endfacet
  facet normal  0.000000e+000  0.000000e+000 -1.000000e+000
    outer loop
      vertex -2.982340e+000 -4.320665e+000  0.000000e+000
      vertex -4.320665e+000 -2.982340e+000  0.000000e+000
      vertex -4.648644e+000 -2.439797e+000  0.000000e+000
    endloop
  endfacet
  facet normal  0.000000e+000  0.000000e+000 -1.000000e+000
    outer loop
      vertex -2.982340e+000 -4.320665e+000  0.000000e+000
      vertex -4.648644e+000 -2.439797e+000  0.000000e+000
      vertex -4.908835e+000 -1.861676e+000  0.000000e+000
    endloop
  endfacet
  facet normal  0.000000e+000  0.000000e+000 -1.000000e+000
    outer loop
      vertex -2.982340e+000 -4.320665e+000  0.000000e+000
      vertex -4.908835e+000 -1.861676e+000  0.000000e+000
      vertex -5.097445e+000 -1.256407e+000  0.000000e+000
    endloop
  endfacet
  facet normal  0.000000e+000  0.000000e+000 -1.000000e+000
    outer loop
      vertex -2.982340e+000 -4.320665e+000  0.000000e+000
      vertex -5.097445e+000 -1.256407e+000  0.000000e+000
      vertex -5.211721e+000 -6.328176e-001  0.000000e+000
    endloop
  endfacet
  facet normal  0.000000e+000  0.000000e+000 -1.000000e+000
    outer loop
      vertex -2.740607e+000  2.270932e-001  0.000000e+000
      vertex -5.211721e+000  6.328176e-001  0.000000e+000
      vertex -5.097445e+000  1.256407e+000  0.000000e+000
    endloop
  endfacet
  facet normal  0.000000e+000  0.000000e+000 -1.000000e+000
    outer loop
      vertex -2.740607e+000  2.270932e-001  0.000000e+000
      vertex -5.097445e+000  1.256407e+000  0.000000e+000
      vertex -4.908835e+000  1.861676e+000  0.000000e+000
    endloop
  endfacet
  facet normal  0.000000e+000  0.000000e+000 -1.000000e+000
    outer loop
      vertex -2.740607e+000  2.270932e-001  0.000000e+000
      vertex -4.908835e+000  1.861676e+000  0.000000e+000
      vertex -4.648644e+000  2.439797e+000  0.000000e+000
    endloop
  endfacet
  facet normal  0.000000e+000  0.000000e+000 -1.000000e+000
    outer loop
      vertex -2.740607e+000  2.270932e-001  0.000000e+000
      vertex -4.648644e+000  2.439797e+000  0.000000e+000
      vertex -4.320665e+000  2.982340e+000  0.000000e+000
    endloop
  endfacet
  facet normal  0.000000e+000  0.000000e+000 -9.999999e-001
    outer loop
      vertex -2.740607e+000  2.270932e-001  0.000000e+000
      vertex -4.320665e+000  2.982340e+000  0.000000e+000
      vertex -3.929682e+000  3.481394e+000  0.000000e+000
    endloop
  endfacet
  facet normal  0.000000e+000  0.000000e+000 -1.000000e+000
    outer loop
      vertex -2.740607e+000  2.270932e-001  0.000000e+000
      vertex -3.929682e+000  3.481394e+000  0.000000e+000
      vertex -3.481394e+000  3.929682e+000  0.000000e+000
    endloop
  endfacet
  facet normal  0.000000e+000  0.000000e+000 -1.000000e+000
    outer loop
      vertex -2.740607e+000  2.270932e-001  0.000000e+000
      vertex -3.481394e+000  3.929682e+000  0.000000e+000
      vertex -2.982340e+000  4.320665e+000  0.000000e+000
    endloop
  endfacet
  facet normal  0.000000e+000  0.000000e+000 -9.999999e-001
    outer loop
      vertex -2.740607e+000  2.270932e-001  0.000000e+000
      vertex -2.982340e+000  4.320665e+000  0.000000e+000
      vertex -2.439797e+000  4.648644e+000  0.000000e+000
    endloop
  endfacet
  facet normal  0.000000e+000  0.000000e+000 -1.000000e+000
    outer loop
      vertex -2.740607e+000  2.270932e-001  0.000000e+000
      vertex -2.439797e+000  4.648644e+000  0.000000e+000
      vertex -2.665851e+000  6.750851e-001  0.000000e+000
    endloop
  endfacet
  facet normal  -0.000000e+000  0.000000e+000 -1.000000e+000
    outer loop
      vertex  5.250000e+000 -9.643775e-016  0.000000e+000
      vertex  5.211721e+000 -6.328176e-001  0.000000e+000
      vertex  5.097445e+000 -1.256407e+000  0.000000e+000
    endloop
  endfacet
  facet normal  -0.000000e+000  0.000000e+000 -1.000000e+000
    outer loop
      vertex  5.250000e+000 -9.643775e-016  0.000000e+000
      vertex  5.097445e+000 -1.256407e+000  0.000000e+000
      vertex  4.908835e+000 -1.861676e+000  0.000000e+000
    endloop
  endfacet
  facet normal  -0.000000e+000  0.000000e+000 -1.000000e+000
    outer loop
      vertex  5.250000e+000 -9.643775e-016  0.000000e+000
      vertex  4.908835e+000 -1.861676e+000  0.000000e+000
      vertex  4.648644e+000 -2.439797e+000  0.000000e+000
    endloop
  endfacet
  facet normal  -0.000000e+000  0.000000e+000 -1.000000e+000
    outer loop
      vertex  5.250000e+000 -9.643775e-016  0.000000e+000
      vertex  4.648644e+000 -2.439797e+000  0.000000e+000
      vertex  4.320665e+000 -2.982340e+000  0.000000e+000
    endloop
  endfacet
  facet normal  -0.000000e+000  0.000000e+000 -1.000000e+000
    outer loop
      vertex  5.250000e+000 -9.643775e-016  0.000000e+000
      vertex  4.320665e+000 -2.982340e+000  0.000000e+000
      vertex  3.929682e+000 -3.481394e+000  0.000000e+000
    endloop
  endfacet
  facet normal  -0.000000e+000  0.000000e+000 -1.000000e+000
    outer loop
      vertex  5.250000e+000 -9.643775e-016  0.000000e+000
      vertex  3.929682e+000 -3.481394e+000  0.000000e+000
      vertex  3.481394e+000 -3.929682e+000  0.000000e+000
    endloop
  endfacet
  facet normal  -0.000000e+000  0.000000e+000 -1.000000e+000
    outer loop
      vertex  5.250000e+000 -9.643775e-016  0.000000e+000
      vertex  3.481394e+000 -3.929682e+000  0.000000e+000
      vertex  2.982340e+000 -4.320665e+000  0.000000e+000
    endloop
  endfacet
  facet normal  0.000000e+000  0.000000e+000 -1.000000e+000
    outer loop
      vertex  5.250000e+000 -9.643775e-016  0.000000e+000
      vertex  2.982340e+000 -4.320665e+000  0.000000e+000
      vertex  2.740607e+000 -2.270932e-001  0.000000e+000
    endloop
  endfacet
  facet normal  0.000000e+000  0.000000e+000 -1.000000e+000
    outer loop
      vertex  5.250000e+000 -9.643775e-016  0.000000e+000
      vertex  2.740607e+000 -2.270932e-001  0.000000e+000
      vertex  2.740607e+000  2.270932e-001  0.000000e+000
    endloop
  endfacet
  facet normal  0.000000e+000  0.000000e+000 -1.000000e+000
    outer loop
      vertex  5.250000e+000 -9.643775e-016  0.000000e+000
      vertex  2.740607e+000  2.270932e-001  0.000000e+000
      vertex  2.982340e+000  4.320665e+000  0.000000e+000
    endloop
  endfacet
  facet normal  0.000000e+000  0.000000e+000 -1.000000e+000
    outer loop
      vertex  5.250000e+000 -9.643775e-016  0.000000e+000
      vertex  2.982340e+000  4.320665e+000  0.000000e+000
      vertex  3.481394e+000  3.929682e+000  0.000000e+000
    endloop
  endfacet
  facet normal  0.000000e+000  0.000000e+000 -1.000000e+000
    outer loop
      vertex  5.250000e+000 -9.643775e-016  0.000000e+000
      vertex  3.481394e+000  3.929682e+000  0.000000e+000
      vertex  3.929682e+000  3.481394e+000  0.000000e+000
    endloop
  endfacet
  facet normal  0.000000e+000  0.000000e+000 -1.000000e+000
    outer loop
      vertex  5.250000e+000 -9.643775e-016  0.000000e+000
      vertex  3.929682e+000  3.481394e+000  0.000000e+000
      vertex  4.320665e+000  2.982340e+000  0.000000e+000
    endloop
  endfacet
  facet normal  0.000000e+000  0.000000e+000 -1.000000e+000
    outer loop
      vertex  5.250000e+000 -9.643775e-016  0.000000e+000
      vertex  4.320665e+000  2.982340e+000  0.000000e+000
      vertex  4.648644e+000  2.439797e+000  0.000000e+000
    endloop
  endfacet
  facet normal  0.000000e+000  0.000000e+000 -1.000000e+000
    outer loop
      vertex  5.250000e+000 -9.643775e-016  0.000000e+000
      vertex  4.648644e+000  2.439797e+000  0.000000e+000
      vertex  4.908835e+000  1.861676e+000  0.000000e+000
    endloop
  endfacet
  facet normal  0.000000e+000  0.000000e+000 -1.000000e+000
    outer loop
      vertex  5.250000e+000 -9.643775e-016  0.000000e+000
      vertex  4.908835e+000  1.861676e+000  0.000000e+000
      vertex  5.097445e+000  1.256407e+000  0.000000e+000
    endloop
  endfacet
  facet normal  0.000000e+000  0.000000e+000 -1.000000e+000
    outer loop
      vertex  5.250000e+000 -9.643775e-016  0.000000e+000
      vertex  5.097445e+000  1.256407e+000  0.000000e+000
      vertex  5.211721e+000  6.328176e-001  0.000000e+000
    endloop
  endfacet
  facet normal  0.000000e+000  0.000000e+000 -1.000000e+000
    outer loop
      vertex  2.982340e+000 -4.320665e+000  0.000000e+000
      vertex  2.439797e+000 -4.648644e+000  0.000000e+000
      vertex  2.518377e+000 -1.104662e+000  0.000000e+000
    endloop
  endfacet
  facet normal  0.000000e+000  0.000000e+000 -1.000000e+000
    outer loop
      vertex  2.982340e+000 -4.320665e+000  0.000000e+000
      vertex  2.518377e+000 -1.104662e+000  0.000000e+000
      vertex  2.665851e+000 -6.750851e-001  0.000000e+000
    endloop
  endfacet
  facet normal  0.000000e+000  0.000000e+000 -1.000000e+000
    outer loop
      vertex  2.982340e+000 -4.320665e+000  0.000000e+000
      vertex  2.665851e+000 -6.750851e-001  0.000000e+000
      vertex  2.740607e+000 -2.270932e-001  0.000000e+000
    endloop
  endfacet
  facet normal  0.000000e+000  0.000000e+000 -1.000000e+000
    outer loop
      vertex  2.982340e+000  4.320665e+000  0.000000e+000
      vertex  2.740607e+000  2.270932e-001  0.000000e+000
      vertex  2.665851e+000  6.750851e-001  0.000000e+000
    endloop
  endfacet
  facet normal  0.000000e+000  0.000000e+000 -1.000000e+000
    outer loop
      vertex  2.982340e+000  4.320665e+000  0.000000e+000
      vertex  2.665851e+000  6.750851e-001  0.000000e+000
      vertex  2.518377e+000  1.104662e+000  0.000000e+000
    endloop
  endfacet
  facet normal  0.000000e+000  0.000000e+000 -1.000000e+000
    outer loop
      vertex  2.982340e+000  4.320665e+000  0.000000e+000
      vertex  2.518377e+000  1.104662e+000  0.000000e+000
      vertex  2.439797e+000  4.648644e+000  0.000000e+000
    endloop
  endfacet
  facet normal  0.000000e+000  0.000000e+000 -1.000000e+000
    outer loop
      vertex -2.740607e+000  2.270932e-001  0.000000e+000
      vertex -2.740607e+000 -2.270932e-001  0.000000e+000
      vertex -5.211721e+000  6.328176e-001  0.000000e+000
    endloop
  endfacet
  facet normal  0.000000e+000  -0.000000e+000 -1.000000e+000
    outer loop
      vertex -5.211721e+000  6.328176e-001  0.000000e+000
      vertex -2.740607e+000 -2.270932e-001  0.000000e+000
      vertex -5.250000e+000  3.214592e-016  0.000000e+000
    endloop
  endfacet
  facet normal  0.000000e+000  0.000000e+000 -1.000000e+000
    outer loop
      vertex -2.740607e+000 -2.270932e-001  0.000000e+000
      vertex -2.982340e+000 -4.320665e+000  0.000000e+000
      vertex -5.250000e+000  3.214592e-016  0.000000e+000
    endloop
  endfacet
  facet normal  0.000000e+000  0.000000e+000 -1.000000e+000
    outer loop
      vertex -5.250000e+000  3.214592e-016  0.000000e+000
      vertex -2.982340e+000 -4.320665e+000  0.000000e+000
      vertex -5.211721e+000 -6.328176e-001  0.000000e+000
    endloop
  endfacet
  facet normal  0.000000e+000  0.000000e+000 -9.999999e-001
    outer loop
      vertex -2.518377e+000 -1.104662e+000  0.000000e+000
      vertex -2.439797e+000 -4.648644e+000  0.000000e+000
      vertex -2.665851e+000 -6.750851e-001  0.000000e+000
    endloop
  endfacet
  facet normal  0.000000e+000  -0.000000e+000 -1.000000e+000
    outer loop
      vertex -2.665851e+000 -6.750851e-001  0.000000e+000
      vertex -2.439797e+000 -4.648644e+000  0.000000e+000
      vertex -2.982340e+000 -4.320665e+000  0.000000e+000
    endloop
  endfacet
  facet normal  0.000000e+000  0.000000e+000 -1.000000e+000
    outer loop
      vertex -2.665851e+000 -6.750851e-001  0.000000e+000
      vertex -2.982340e+000 -4.320665e+000  0.000000e+000
      vertex -2.740607e+000 -2.270932e-001  0.000000e+000
    endloop
  endfacet
  facet normal  0.000000e+000  0.000000e+000 -1.000000e+000
    outer loop
      vertex -2.023241e+000 -1.862524e+000  0.000000e+000
      vertex -1.861676e+000 -4.908835e+000  0.000000e+000
      vertex -2.302208e+000 -1.504107e+000  0.000000e+000
    endloop
  endfacet
  facet normal  0.000000e+000  -0.000000e+000 -1.000000e+000
    outer loop
      vertex -2.302208e+000 -1.504107e+000  0.000000e+000
      vertex -1.861676e+000 -4.908835e+000  0.000000e+000
      vertex -2.439797e+000 -4.648644e+000  0.000000e+000
    endloop
  endfacet
  facet normal  0.000000e+000  0.000000e+000 -1.000000e+000
    outer loop
      vertex -2.302208e+000 -1.504107e+000  0.000000e+000
      vertex -2.439797e+000 -4.648644e+000  0.000000e+000
      vertex -2.518377e+000 -1.104662e+000  0.000000e+000
    endloop
  endfacet
  facet normal  0.000000e+000  0.000000e+000 -1.000000e+000
    outer loop
      vertex -1.308855e+000 -2.418553e+000  0.000000e+000
      vertex -1.256407e+000 -5.097445e+000  0.000000e+000
      vertex -1.689085e+000 -2.170136e+000  0.000000e+000
    endloop
  endfacet
  facet normal  0.000000e+000  -0.000000e+000 -1.000000e+000
    outer loop
      vertex -1.689085e+000 -2.170136e+000  0.000000e+000
      vertex -1.256407e+000 -5.097445e+000  0.000000e+000
      vertex -1.861676e+000 -4.908835e+000  0.000000e+000
    endloop
  endfacet
  facet normal  0.000000e+000  0.000000e+000 -9.999999e-001
    outer loop
      vertex -1.689085e+000 -2.170136e+000  0.000000e+000
      vertex -1.861676e+000 -4.908835e+000  0.000000e+000
      vertex -2.023241e+000 -1.862524e+000  0.000000e+000
    endloop
  endfacet
  facet normal  0.000000e+000  0.000000e+000 -9.999999e-001
    outer loop
      vertex -4.526351e-001 -2.712494e+000  0.000000e+000
      vertex -6.328176e-001 -5.211721e+000  0.000000e+000
      vertex -8.929235e-001 -2.600997e+000  0.000000e+000
    endloop
  endfacet
  facet normal  0.000000e+000  -0.000000e+000 -1.000000e+000
    outer loop
      vertex -8.929235e-001 -2.600997e+000  0.000000e+000
      vertex -6.328176e-001 -5.211721e+000  0.000000e+000
      vertex -1.256407e+000 -5.097445e+000  0.000000e+000
    endloop
  endfacet
  facet normal  0.000000e+000  0.000000e+000 -1.000000e+000
    outer loop
      vertex -8.929235e-001 -2.600997e+000  0.000000e+000
      vertex -1.256407e+000 -5.097445e+000  0.000000e+000
      vertex -1.308855e+000 -2.418553e+000  0.000000e+000
    endloop
  endfacet
  facet normal  0.000000e+000  0.000000e+000 -1.000000e+000
    outer loop
      vertex  1.308855e+000 -2.418553e+000  0.000000e+000
      vertex  1.256407e+000 -5.097445e+000  0.000000e+000
      vertex  8.929235e-001 -2.600997e+000  0.000000e+000
    endloop
  endfacet
  facet normal  0.000000e+000  -0.000000e+000 -1.000000e+000
    outer loop
      vertex  8.929235e-001 -2.600997e+000  0.000000e+000
      vertex  1.256407e+000 -5.097445e+000  0.000000e+000
      vertex  6.328176e-001 -5.211721e+000  0.000000e+000
    endloop
  endfacet
  facet normal  0.000000e+000  0.000000e+000 -9.999999e-001
    outer loop
      vertex  8.929235e-001 -2.600997e+000  0.000000e+000
      vertex  6.328176e-001 -5.211721e+000  0.000000e+000
      vertex  4.526351e-001 -2.712494e+000  0.000000e+000
    endloop
  endfacet
  facet normal  0.000000e+000  -0.000000e+000 -1.000000e+000
    outer loop
      vertex  4.526351e-001 -2.712494e+000  0.000000e+000
      vertex  6.328176e-001 -5.211721e+000  0.000000e+000
      vertex -6.429183e-016 -5.250000e+000  0.000000e+000
    endloop
  endfacet
  facet normal  0.000000e+000  0.000000e+000 -1.000000e+000
    outer loop
      vertex  4.526351e-001 -2.712494e+000  0.000000e+000
      vertex -6.429183e-016 -5.250000e+000  0.000000e+000
      vertex -1.558012e-015 -2.750000e+000  0.000000e+000
    endloop
  endfacet
  facet normal  0.000000e+000  -0.000000e+000 -1.000000e+000
    outer loop
      vertex -1.558012e-015 -2.750000e+000  0.000000e+000
      vertex -6.429183e-016 -5.250000e+000  0.000000e+000
      vertex -6.328176e-001 -5.211721e+000  0.000000e+000
    endloop
  endfacet
  facet normal  0.000000e+000  0.000000e+000 -1.000000e+000
    outer loop
      vertex -1.558012e-015 -2.750000e+000  0.000000e+000
      vertex -6.328176e-001 -5.211721e+000  0.000000e+000
      vertex -4.526351e-001 -2.712494e+000  0.000000e+000
    endloop
  endfacet
  facet normal  0.000000e+000  0.000000e+000 -9.999999e-001
    outer loop
      vertex  2.023241e+000 -1.862524e+000  0.000000e+000
      vertex  1.861676e+000 -4.908835e+000  0.000000e+000
      vertex  1.689085e+000 -2.170136e+000  0.000000e+000
    endloop
  endfacet
  facet normal  0.000000e+000  -0.000000e+000 -1.000000e+000
    outer loop
      vertex  1.689085e+000 -2.170136e+000  0.000000e+000
      vertex  1.861676e+000 -4.908835e+000  0.000000e+000
      vertex  1.256407e+000 -5.097445e+000  0.000000e+000
    endloop
  endfacet
  facet normal  0.000000e+000  0.000000e+000 -1.000000e+000
    outer loop
      vertex  1.689085e+000 -2.170136e+000  0.000000e+000
      vertex  1.256407e+000 -5.097445e+000  0.000000e+000
      vertex  1.308855e+000 -2.418553e+000  0.000000e+000
    endloop
  endfacet
  facet normal  0.000000e+000  0.000000e+000 -1.000000e+000
    outer loop
      vertex  2.518377e+000 -1.104662e+000  0.000000e+000
      vertex  2.439797e+000 -4.648644e+000  0.000000e+000
      vertex  2.302208e+000 -1.504107e+000  0.000000e+000
    endloop
  endfacet
  facet normal  0.000000e+000  -0.000000e+000 -1.000000e+000
    outer loop
      vertex  2.302208e+000 -1.504107e+000  0.000000e+000
      vertex  2.439797e+000 -4.648644e+000  0.000000e+000
      vertex  1.861676e+000 -4.908835e+000  0.000000e+000
    endloop
  endfacet
  facet normal  0.000000e+000  0.000000e+000 -1.000000e+000
    outer loop
      vertex  2.302208e+000 -1.504107e+000  0.000000e+000
      vertex  1.861676e+000 -4.908835e+000  0.000000e+000
      vertex  2.023241e+000 -1.862524e+000  0.000000e+000
    endloop
  endfacet
  facet normal  0.000000e+000  0.000000e+000 -9.999999e-001
    outer loop
      vertex -2.665851e+000  6.750851e-001  0.000000e+000
      vertex -2.439797e+000  4.648644e+000  0.000000e+000
      vertex -2.518377e+000  1.104662e+000  0.000000e+000
    endloop
  endfacet
  facet normal  0.000000e+000  0.000000e+000 -1.000000e+000
    outer loop
      vertex -2.518377e+000  1.104662e+000  0.000000e+000
      vertex -2.439797e+000  4.648644e+000  0.000000e+000
      vertex -1.861676e+000  4.908835e+000  0.000000e+000
    endloop
  endfacet
  facet normal  0.000000e+000  0.000000e+000 -1.000000e+000
    outer loop
      vertex -2.518377e+000  1.104662e+000  0.000000e+000
      vertex -1.861676e+000  4.908835e+000  0.000000e+000
      vertex -2.302208e+000  1.504107e+000  0.000000e+000
    endloop
  endfacet
  facet normal  0.000000e+000  0.000000e+000 -1.000000e+000
    outer loop
      vertex -2.302208e+000  1.504107e+000  0.000000e+000
      vertex -1.861676e+000  4.908835e+000  0.000000e+000
      vertex -2.023241e+000  1.862524e+000  0.000000e+000
    endloop
  endfacet
  facet normal  0.000000e+000  0.000000e+000 -9.999999e-001
    outer loop
      vertex -2.023241e+000  1.862524e+000  0.000000e+000
      vertex -1.861676e+000  4.908835e+000  0.000000e+000
      vertex -1.256407e+000  5.097445e+000  0.000000e+000
    endloop
  endfacet
  facet normal  0.000000e+000  0.000000e+000 -1.000000e+000
    outer loop
      vertex -2.023241e+000  1.862524e+000  0.000000e+000
      vertex -1.256407e+000  5.097445e+000  0.000000e+000
      vertex -1.689085e+000  2.170136e+000  0.000000e+000
    endloop
  endfacet
  facet normal  0.000000e+000  0.000000e+000 -1.000000e+000
    outer loop
      vertex -1.689085e+000  2.170136e+000  0.000000e+000
      vertex -1.256407e+000  5.097445e+000  0.000000e+000
      vertex -1.308855e+000  2.418553e+000  0.000000e+000
    endloop
  endfacet
  facet normal  0.000000e+000  0.000000e+000 -1.000000e+000
    outer loop
      vertex -1.308855e+000  2.418553e+000  0.000000e+000
      vertex -1.256407e+000  5.097445e+000  0.000000e+000
      vertex -6.328176e-001  5.211721e+000  0.000000e+000
    endloop
  endfacet
  facet normal  0.000000e+000  0.000000e+000 -1.000000e+000
    outer loop
      vertex -1.308855e+000  2.418553e+000  0.000000e+000
      vertex -6.328176e-001  5.211721e+000  0.000000e+000
      vertex -8.929235e-001  2.600997e+000  0.000000e+000
    endloop
  endfacet
  facet normal  0.000000e+000  0.000000e+000 -1.000000e+000
    outer loop
      vertex  1.308855e+000  2.418553e+000  0.000000e+000
      vertex  8.929235e-001  2.600997e+000  0.000000e+000
      vertex  1.256407e+000  5.097445e+000  0.000000e+000
    endloop
  endfacet
  facet normal  0.000000e+000  0.000000e+000 -1.000000e+000
    outer loop
      vertex  1.256407e+000  5.097445e+000  0.000000e+000
      vertex  8.929235e-001  2.600997e+000  0.000000e+000
      vertex  4.526351e-001  2.712494e+000  0.000000e+000
    endloop
  endfacet
  facet normal  0.000000e+000  0.000000e+000 -1.000000e+000
    outer loop
      vertex  1.256407e+000  5.097445e+000  0.000000e+000
      vertex  4.526351e-001  2.712494e+000  0.000000e+000
      vertex  6.328176e-001  5.211721e+000  0.000000e+000
    endloop
  endfacet
  facet normal  0.000000e+000  0.000000e+000 -1.000000e+000
    outer loop
      vertex  6.328176e-001  5.211721e+000  0.000000e+000
      vertex  4.526351e-001  2.712494e+000  0.000000e+000
      vertex  0.000000e+000  2.750000e+000  0.000000e+000
    endloop
  endfacet
  facet normal  0.000000e+000  0.000000e+000 -1.000000e+000
    outer loop
      vertex  6.328176e-001  5.211721e+000  0.000000e+000
      vertex  0.000000e+000  2.750000e+000  0.000000e+000
      vertex  0.000000e+000  5.250000e+000  0.000000e+000
    endloop
  endfacet
  facet normal  0.000000e+000  -0.000000e+000 -1.000000e+000
    outer loop
      vertex  0.000000e+000  5.250000e+000  0.000000e+000
      vertex  0.000000e+000  2.750000e+000  0.000000e+000
      vertex -4.526351e-001  2.712494e+000  0.000000e+000
    endloop
  endfacet
  facet normal  0.000000e+000  0.000000e+000 -1.000000e+000
    outer loop
      vertex  0.000000e+000  5.250000e+000  0.000000e+000
      vertex -4.526351e-001  2.712494e+000  0.000000e+000
      vertex -6.328176e-001  5.211721e+000  0.000000e+000
    endloop
  endfacet
  facet normal  0.000000e+000  0.000000e+000 -9.999999e-001
    outer loop
      vertex  2.023241e+000  1.862524e+000  0.000000e+000
      vertex  1.689085e+000  2.170136e+000  0.000000e+000
      vertex  1.861676e+000  4.908835e+000  0.000000e+000
    endloop
  endfacet
  facet normal  0.000000e+000  0.000000e+000 -1.000000e+000
    outer loop
      vertex  1.861676e+000  4.908835e+000  0.000000e+000
      vertex  1.689085e+000  2.170136e+000  0.000000e+000
      vertex  1.308855e+000  2.418553e+000  0.000000e+000
    endloop
  endfacet
  facet normal  0.000000e+000  0.000000e+000 -1.000000e+000
    outer loop
      vertex  1.861676e+000  4.908835e+000  0.000000e+000
      vertex  1.308855e+000  2.418553e+000  0.000000e+000
      vertex  1.256407e+000  5.097445e+000  0.000000e+000
    endloop
  endfacet
  facet normal  0.000000e+000  0.000000e+000 -1.000000e+000
    outer loop
      vertex  2.518377e+000  1.104662e+000  0.000000e+000
      vertex  2.302208e+000  1.504107e+000  0.000000e+000
      vertex  2.439797e+000  4.648644e+000  0.000000e+000
    endloop
  endfacet
  facet normal  0.000000e+000  0.000000e+000 -9.999999e-001
    outer loop
      vertex  2.439797e+000  4.648644e+000  0.000000e+000
      vertex  2.302208e+000  1.504107e+000  0.000000e+000
      vertex  2.023241e+000  1.862524e+000  0.000000e+000
    endloop
  endfacet
  facet normal  0.000000e+000  0.000000e+000 -1.000000e+000
    outer loop
      vertex  2.439797e+000  4.648644e+000  0.000000e+000
      vertex  2.023241e+000  1.862524e+000  0.000000e+000
      vertex  1.861676e+000  4.908835e+000  0.000000e+000
    endloop
  endfacet
  facet normal  9.863613e-001  1.645946e-001  0.000000e+000
    outer loop
      vertex -2.740607e+000 -2.270932e-001  0.000000e+000
      vertex -2.665851e+000 -6.750851e-001  2.600000e+001
      vertex -2.665851e+000 -6.750851e-001  0.000000e+000
    endloop
  endfacet
  facet normal  9.458173e-001  3.246994e-001  -0.000000e+000
    outer loop
      vertex -2.665851e+000 -6.750851e-001  0.000000e+000
      vertex -2.665851e+000 -6.750851e-001  2.600000e+001
      vertex -2.518377e+000 -1.104662e+000  2.600000e+001
    endloop
  endfacet
  facet normal  9.458173e-001  3.246994e-001  0.000000e+000
    outer loop
      vertex -2.665851e+000 -6.750851e-001  0.000000e+000
      vertex -2.518377e+000 -1.104662e+000  2.600000e+001
      vertex -2.518377e+000 -1.104662e+000  0.000000e+000
    endloop
  endfacet
  facet normal  8.794738e-001  4.759475e-001  -0.000000e+000
    outer loop
      vertex -2.518377e+000 -1.104662e+000  0.000000e+000
      vertex -2.518377e+000 -1.104662e+000  2.600000e+001
      vertex -2.302208e+000 -1.504107e+000  2.600000e+001
    endloop
  endfacet
  facet normal  8.794738e-001  4.759475e-001  0.000000e+000
    outer loop
      vertex -2.518377e+000 -1.104662e+000  0.000000e+000
      vertex -2.302208e+000 -1.504107e+000  2.600000e+001
      vertex -2.302208e+000 -1.504107e+000  0.000000e+000
    endloop
  endfacet
  facet normal  7.891406e-001  6.142126e-001  -0.000000e+000
    outer loop
      vertex -2.302208e+000 -1.504107e+000  0.000000e+000
      vertex -2.302208e+000 -1.504107e+000  2.600000e+001
      vertex -2.023241e+000 -1.862524e+000  2.600000e+001
    endloop
  endfacet
  facet normal  7.891406e-001  6.142126e-001  0.000000e+000
    outer loop
      vertex -2.302208e+000 -1.504107e+000  0.000000e+000
      vertex -2.023241e+000 -1.862524e+000  2.600000e+001
      vertex -2.023241e+000 -1.862524e+000  0.000000e+000
    endloop
  endfacet
  facet normal  6.772817e-001  7.357239e-001  -0.000000e+000
    outer loop
      vertex -2.023241e+000 -1.862524e+000  0.000000e+000
      vertex -2.023241e+000 -1.862524e+000  2.600000e+001
      vertex -1.689085e+000 -2.170136e+000  2.600000e+001
    endloop
  endfacet
  facet normal  6.772817e-001  7.357239e-001  0.000000e+000
    outer loop
      vertex -2.023241e+000 -1.862524e+000  0.000000e+000
      vertex -1.689085e+000 -2.170136e+000  2.600000e+001
      vertex -1.689085e+000 -2.170136e+000  0.000000e+000
    endloop
  endfacet
  facet normal  5.469480e-001  8.371665e-001  -0.000000e+000
    outer loop
      vertex -1.689085e+000 -2.170136e+000  0.000000e+000
      vertex -1.689085e+000 -2.170136e+000  2.600000e+001
      vertex -1.308855e+000 -2.418553e+000  2.600000e+001
    endloop
  endfacet
  facet normal  5.469480e-001  8.371665e-001  0.000000e+000
    outer loop
      vertex -1.689085e+000 -2.170136e+000  0.000000e+000
      vertex -1.308855e+000 -2.418553e+000  2.600000e+001
      vertex -1.308855e+000 -2.418553e+000  0.000000e+000
    endloop
  endfacet
  facet normal  4.016954e-001  9.157734e-001  -0.000000e+000
    outer loop
      vertex -1.308855e+000 -2.418553e+000  0.000000e+000
      vertex -1.308855e+000 -2.418553e+000  2.600000e+001
      vertex -8.929235e-001 -2.600997e+000  2.600000e+001
    endloop
  endfacet
  facet normal  4.016954e-001  9.157734e-001  0.000000e+000
    outer loop
      vertex -1.308855e+000 -2.418553e+000  0.000000e+000
      vertex -8.929235e-001 -2.600997e+000  2.600000e+001
      vertex -8.929235e-001 -2.600997e+000  0.000000e+000
    endloop
  endfacet
  facet normal  2.454856e-001  9.694002e-001  -0.000000e+000
    outer loop
      vertex -8.929235e-001 -2.600997e+000  0.000000e+000
      vertex -8.929235e-001 -2.600997e+000  2.600000e+001
      vertex -4.526351e-001 -2.712494e+000  2.600000e+001
    endloop
  endfacet
  facet normal  2.454856e-001  9.694002e-001  0.000000e+000
    outer loop
      vertex -8.929235e-001 -2.600997e+000  0.000000e+000
      vertex -4.526351e-001 -2.712494e+000  2.600000e+001
      vertex -4.526351e-001 -2.712494e+000  0.000000e+000
    endloop
  endfacet
  facet normal  8.257920e-002  9.965845e-001  -0.000000e+000
    outer loop
      vertex -4.526351e-001 -2.712494e+000  0.000000e+000
      vertex -4.526351e-001 -2.712494e+000  2.600000e+001
      vertex -1.558012e-015 -2.750000e+000  2.600000e+001
    endloop
  endfacet
  facet normal  8.257920e-002  9.965845e-001  0.000000e+000
    outer loop
      vertex -4.526351e-001 -2.712494e+000  0.000000e+000
      vertex -1.558012e-015 -2.750000e+000  2.600000e+001
      vertex -1.558012e-015 -2.750000e+000  0.000000e+000
    endloop
  endfacet
  facet normal  9.863613e-001  1.645946e-001  -0.000000e+000
    outer loop
      vertex -2.665851e+000 -6.750851e-001  2.600000e+001
      vertex -2.740607e+000 -2.270932e-001  0.000000e+000
      vertex -2.740607e+000 -2.270932e-001  2.600000e+001
    endloop
  endfacet
  facet normal  1.000000e+000  0.000000e+000  0.000000e+000
    outer loop
      vertex -2.740607e+000 -2.270932e-001  2.600000e+001
      vertex -2.740607e+000 -2.270932e-001  0.000000e+000
      vertex -2.740607e+000  2.270932e-001  0.000000e+000
    endloop
  endfacet
  facet normal  1.000000e+000  0.000000e+000  -0.000000e+000
    outer loop
      vertex -2.740607e+000 -2.270932e-001  2.600000e+001
      vertex -2.740607e+000  2.270932e-001  0.000000e+000
      vertex -2.740607e+000  2.270932e-001  2.600000e+001
    endloop
  endfacet
  facet normal  9.863613e-001 -1.645946e-001  0.000000e+000
    outer loop
      vertex -2.740607e+000  2.270932e-001  2.600000e+001
      vertex -2.740607e+000  2.270932e-001  0.000000e+000
      vertex -2.665851e+000  6.750851e-001  0.000000e+000
    endloop
  endfacet
  facet normal  9.863613e-001 -1.645946e-001  0.000000e+000
    outer loop
      vertex -2.740607e+000  2.270932e-001  2.600000e+001
      vertex -2.665851e+000  6.750851e-001  0.000000e+000
      vertex -2.665851e+000  6.750851e-001  2.600000e+001
    endloop
  endfacet
  facet normal  9.458173e-001 -3.246994e-001  0.000000e+000
    outer loop
      vertex -2.665851e+000  6.750851e-001  2.600000e+001
      vertex -2.665851e+000  6.750851e-001  0.000000e+000
      vertex -2.518377e+000  1.104662e+000  0.000000e+000
    endloop
  endfacet
  facet normal  9.458173e-001 -3.246994e-001  0.000000e+000
    outer loop
      vertex -2.665851e+000  6.750851e-001  2.600000e+001
      vertex -2.518377e+000  1.104662e+000  0.000000e+000
      vertex -2.518377e+000  1.104662e+000  2.600000e+001
    endloop
  endfacet
  facet normal  8.794738e-001 -4.759475e-001  0.000000e+000
    outer loop
      vertex -2.518377e+000  1.104662e+000  2.600000e+001
      vertex -2.518377e+000  1.104662e+000  0.000000e+000
      vertex -2.302208e+000  1.504107e+000  0.000000e+000
    endloop
  endfacet
  facet normal  8.794738e-001 -4.759475e-001  0.000000e+000
    outer loop
      vertex -2.518377e+000  1.104662e+000  2.600000e+001
      vertex -2.302208e+000  1.504107e+000  0.000000e+000
      vertex -2.302208e+000  1.504107e+000  2.600000e+001
    endloop
  endfacet
  facet normal  7.891406e-001 -6.142126e-001  0.000000e+000
    outer loop
      vertex -2.302208e+000  1.504107e+000  2.600000e+001
      vertex -2.302208e+000  1.504107e+000  0.000000e+000
      vertex -2.023241e+000  1.862524e+000  0.000000e+000
    endloop
  endfacet
  facet normal  7.891406e-001 -6.142126e-001  0.000000e+000
    outer loop
      vertex -2.302208e+000  1.504107e+000  2.600000e+001
      vertex -2.023241e+000  1.862524e+000  0.000000e+000
      vertex -2.023241e+000  1.862524e+000  2.600000e+001
    endloop
  endfacet
  facet normal  6.772817e-001 -7.357239e-001  0.000000e+000
    outer loop
      vertex -2.023241e+000  1.862524e+000  2.600000e+001
      vertex -2.023241e+000  1.862524e+000  0.000000e+000
      vertex -1.689085e+000  2.170136e+000  0.000000e+000
    endloop
  endfacet
  facet normal  6.772817e-001 -7.357239e-001  0.000000e+000
    outer loop
      vertex -2.023241e+000  1.862524e+000  2.600000e+001
      vertex -1.689085e+000  2.170136e+000  0.000000e+000
      vertex -1.689085e+000  2.170136e+000  2.600000e+001
    endloop
  endfacet
  facet normal  5.469480e-001 -8.371665e-001  0.000000e+000
    outer loop
      vertex -1.689085e+000  2.170136e+000  2.600000e+001
      vertex -1.689085e+000  2.170136e+000  0.000000e+000
      vertex -1.308855e+000  2.418553e+000  0.000000e+000
    endloop
  endfacet
  facet normal  5.469480e-001 -8.371665e-001  0.000000e+000
    outer loop
      vertex -1.689085e+000  2.170136e+000  2.600000e+001
      vertex -1.308855e+000  2.418553e+000  0.000000e+000
      vertex -1.308855e+000  2.418553e+000  2.600000e+001
    endloop
  endfacet
  facet normal  4.016954e-001 -9.157734e-001  0.000000e+000
    outer loop
      vertex -1.308855e+000  2.418553e+000  2.600000e+001
      vertex -1.308855e+000  2.418553e+000  0.000000e+000
      vertex -8.929235e-001  2.600997e+000  0.000000e+000
    endloop
  endfacet
  facet normal  4.016954e-001 -9.157734e-001  0.000000e+000
    outer loop
      vertex -1.308855e+000  2.418553e+000  2.600000e+001
      vertex -8.929235e-001  2.600997e+000  0.000000e+000
      vertex -8.929235e-001  2.600997e+000  2.600000e+001
    endloop
  endfacet
  facet normal  2.454856e-001 -9.694002e-001  0.000000e+000
    outer loop
      vertex -8.929235e-001  2.600997e+000  2.600000e+001
      vertex -8.929235e-001  2.600997e+000  0.000000e+000
      vertex -4.526351e-001  2.712494e+000  0.000000e+000
    endloop
  endfacet
  facet normal  2.454856e-001 -9.694002e-001  0.000000e+000
    outer loop
      vertex -8.929235e-001  2.600997e+000  2.600000e+001
      vertex -4.526351e-001  2.712494e+000  0.000000e+000
      vertex -4.526351e-001  2.712494e+000  2.600000e+001
    endloop
  endfacet
  facet normal  8.257920e-002 -9.965845e-001  0.000000e+000
    outer loop
      vertex -4.526351e-001  2.712494e+000  2.600000e+001
      vertex -4.526351e-001  2.712494e+000  0.000000e+000
      vertex  0.000000e+000  2.750000e+000  0.000000e+000
    endloop
  endfacet
  facet normal  8.257920e-002 -9.965845e-001  0.000000e+000
    outer loop
      vertex -4.526351e-001  2.712494e+000  2.600000e+001
      vertex  0.000000e+000  2.750000e+000  0.000000e+000
      vertex  0.000000e+000  2.750000e+000  2.600000e+001
    endloop
  endfacet
  facet normal -9.863613e-001 -1.645946e-001  -0.000000e+000
    outer loop
      vertex  2.740607e+000  2.270932e-001  0.000000e+000
      vertex  2.665851e+000  6.750851e-001  2.600000e+001
      vertex  2.665851e+000  6.750851e-001  0.000000e+000
    endloop
  endfacet
  facet normal -9.458173e-001 -3.246994e-001  0.000000e+000
    outer loop
      vertex  2.665851e+000  6.750851e-001  0.000000e+000
      vertex  2.665851e+000  6.750851e-001  2.600000e+001
      vertex  2.518377e+000  1.104662e+000  2.600000e+001
    endloop
  endfacet
  facet normal -9.458173e-001 -3.246994e-001  -0.000000e+000
    outer loop
      vertex  2.665851e+000  6.750851e-001  0.000000e+000
      vertex  2.518377e+000  1.104662e+000  2.600000e+001
      vertex  2.518377e+000  1.104662e+000  0.000000e+000
    endloop
  endfacet
  facet normal -8.794738e-001 -4.759475e-001  0.000000e+000
    outer loop
      vertex  2.518377e+000  1.104662e+000  0.000000e+000
      vertex  2.518377e+000  1.104662e+000  2.600000e+001
      vertex  2.302208e+000  1.504107e+000  2.600000e+001
    endloop
  endfacet
  facet normal -8.794738e-001 -4.759475e-001  -0.000000e+000
    outer loop
      vertex  2.518377e+000  1.104662e+000  0.000000e+000
      vertex  2.302208e+000  1.504107e+000  2.600000e+001
      vertex  2.302208e+000  1.504107e+000  0.000000e+000
    endloop
  endfacet
  facet normal -7.891406e-001 -6.142126e-001  0.000000e+000
    outer loop
      vertex  2.302208e+000  1.504107e+000  0.000000e+000
      vertex  2.302208e+000  1.504107e+000  2.600000e+001
      vertex  2.023241e+000  1.862524e+000  2.600000e+001
    endloop
  endfacet
  facet normal -7.891406e-001 -6.142126e-001  -0.000000e+000
    outer loop
      vertex  2.302208e+000  1.504107e+000  0.000000e+000
      vertex  2.023241e+000  1.862524e+000  2.600000e+001
      vertex  2.023241e+000  1.862524e+000  0.000000e+000
    endloop
  endfacet
  facet normal -6.772817e-001 -7.357239e-001  0.000000e+000
    outer loop
      vertex  2.023241e+000  1.862524e+000  0.000000e+000
      vertex  2.023241e+000  1.862524e+000  2.600000e+001
      vertex  1.689085e+000  2.170136e+000  2.600000e+001
    endloop
  endfacet
  facet normal -6.772817e-001 -7.357239e-001  -0.000000e+000
    outer loop
      vertex  2.023241e+000  1.862524e+000  0.000000e+000
      vertex  1.689085e+000  2.170136e+000  2.600000e+001
      vertex  1.689085e+000  2.170136e+000  0.000000e+000
    endloop
  endfacet
  facet normal -5.469480e-001 -8.371665e-001  0.000000e+000
    outer loop
      vertex  1.689085e+000  2.170136e+000  0.000000e+000
      vertex  1.689085e+000  2.170136e+000  2.600000e+001
      vertex  1.308855e+000  2.418553e+000  2.600000e+001
    endloop
  endfacet
  facet normal -5.469480e-001 -8.371665e-001  -0.000000e+000
    outer loop
      vertex  1.689085e+000  2.170136e+000  0.000000e+000
      vertex  1.308855e+000  2.418553e+000  2.600000e+001
      vertex  1.308855e+000  2.418553e+000  0.000000e+000
    endloop
  endfacet
  facet normal -4.016954e-001 -9.157734e-001  0.000000e+000
    outer loop
      vertex  1.308855e+000  2.418553e+000  0.000000e+000
      vertex  1.308855e+000  2.418553e+000  2.600000e+001
      vertex  8.929235e-001  2.600997e+000  2.600000e+001
    endloop
  endfacet
  facet normal -4.016954e-001 -9.157734e-001  -0.000000e+000
    outer loop
      vertex  1.308855e+000  2.418553e+000  0.000000e+000
      vertex  8.929235e-001  2.600997e+000  2.600000e+001
      vertex  8.929235e-001  2.600997e+000  0.000000e+000
    endloop
  endfacet
  facet normal -2.454856e-001 -9.694002e-001  0.000000e+000
    outer loop
      vertex  8.929235e-001  2.600997e+000  0.000000e+000
      vertex  8.929235e-001  2.600997e+000  2.600000e+001
      vertex  4.526351e-001  2.712494e+000  2.600000e+001
    endloop
  endfacet
  facet normal -2.454856e-001 -9.694002e-001  -0.000000e+000
    outer loop
      vertex  8.929235e-001  2.600997e+000  0.000000e+000
      vertex  4.526351e-001  2.712494e+000  2.600000e+001
      vertex  4.526351e-001  2.712494e+000  0.000000e+000
    endloop
  endfacet
  facet normal -8.257920e-002 -9.965845e-001  0.000000e+000
    outer loop
      vertex  4.526351e-001  2.712494e+000  0.000000e+000
      vertex  4.526351e-001  2.712494e+000  2.600000e+001
      vertex  0.000000e+000  2.750000e+000  2.600000e+001
    endloop
  endfacet
  facet normal -8.257920e-002 -9.965845e-001  -0.000000e+000
    outer loop
      vertex  4.526351e-001  2.712494e+000  0.000000e+000
      vertex  0.000000e+000  2.750000e+000  2.600000e+001
      vertex  0.000000e+000  2.750000e+000  0.000000e+000
    endloop
  endfacet
  facet normal -9.863613e-001 -1.645946e-001  0.000000e+000
    outer loop
      vertex  2.665851e+000  6.750851e-001  2.600000e+001
      vertex  2.740607e+000  2.270932e-001  0.000000e+000
      vertex  2.740607e+000  2.270932e-001  2.600000e+001
    endloop
  endfacet
  facet normal -1.000000e+000  0.000000e+000  -0.000000e+000
    outer loop
      vertex  2.740607e+000  2.270932e-001  2.600000e+001
      vertex  2.740607e+000  2.270932e-001  0.000000e+000
      vertex  2.740607e+000 -2.270932e-001  0.000000e+000
    endloop
  endfacet
  facet normal -1.000000e+000  0.000000e+000  0.000000e+000
    outer loop
      vertex  2.740607e+000  2.270932e-001  2.600000e+001
      vertex  2.740607e+000 -2.270932e-001  0.000000e+000
      vertex  2.740607e+000 -2.270932e-001  2.600000e+001
    endloop
  endfacet
  facet normal -9.863613e-001  1.645946e-001  0.000000e+000
    outer loop
      vertex  2.740607e+000 -2.270932e-001  2.600000e+001
      vertex  2.740607e+000 -2.270932e-001  0.000000e+000
      vertex  2.665851e+000 -6.750851e-001  0.000000e+000
    endloop
  endfacet
  facet normal -9.863613e-001  1.645946e-001  0.000000e+000
    outer loop
      vertex  2.740607e+000 -2.270932e-001  2.600000e+001
      vertex  2.665851e+000 -6.750851e-001  0.000000e+000
      vertex  2.665851e+000 -6.750851e-001  2.600000e+001
    endloop
  endfacet
  facet normal -9.458173e-001  3.246994e-001  0.000000e+000
    outer loop
      vertex  2.665851e+000 -6.750851e-001  2.600000e+001
      vertex  2.665851e+000 -6.750851e-001  0.000000e+000
      vertex  2.518377e+000 -1.104662e+000  0.000000e+000
    endloop
  endfacet
  facet normal -9.458173e-001  3.246994e-001  0.000000e+000
    outer loop
      vertex  2.665851e+000 -6.750851e-001  2.600000e+001
      vertex  2.518377e+000 -1.104662e+000  0.000000e+000
      vertex  2.518377e+000 -1.104662e+000  2.600000e+001
    endloop
  endfacet
  facet normal -8.794738e-001  4.759475e-001  0.000000e+000
    outer loop
      vertex  2.518377e+000 -1.104662e+000  2.600000e+001
      vertex  2.518377e+000 -1.104662e+000  0.000000e+000
      vertex  2.302208e+000 -1.504107e+000  0.000000e+000
    endloop
  endfacet
  facet normal -8.794738e-001  4.759475e-001  0.000000e+000
    outer loop
      vertex  2.518377e+000 -1.104662e+000  2.600000e+001
      vertex  2.302208e+000 -1.504107e+000  0.000000e+000
      vertex  2.302208e+000 -1.504107e+000  2.600000e+001
    endloop
  endfacet
  facet normal -7.891406e-001  6.142126e-001  0.000000e+000
    outer loop
      vertex  2.302208e+000 -1.504107e+000  2.600000e+001
      vertex  2.302208e+000 -1.504107e+000  0.000000e+000
      vertex  2.023241e+000 -1.862524e+000  0.000000e+000
    endloop
  endfacet
  facet normal -7.891406e-001  6.142126e-001  0.000000e+000
    outer loop
      vertex  2.302208e+000 -1.504107e+000  2.600000e+001
      vertex  2.023241e+000 -1.862524e+000  0.000000e+000
      vertex  2.023241e+000 -1.862524e+000  2.600000e+001
    endloop
  endfacet
  facet normal -6.772817e-001  7.357239e-001  0.000000e+000
    outer loop
      vertex  2.023241e+000 -1.862524e+000  2.600000e+001
      vertex  2.023241e+000 -1.862524e+000  0.000000e+000
      vertex  1.689085e+000 -2.170136e+000  0.000000e+000
    endloop
  endfacet
  facet normal -6.772817e-001  7.357239e-001  0.000000e+000
    outer loop
      vertex  2.023241e+000 -1.862524e+000  2.600000e+001
      vertex  1.689085e+000 -2.170136e+000  0.000000e+000
      vertex  1.689085e+000 -2.170136e+000  2.600000e+001
    endloop
  endfacet
  facet normal -5.469480e-001  8.371665e-001  0.000000e+000
    outer loop
      vertex  1.689085e+000 -2.170136e+000  2.600000e+001
      vertex  1.689085e+000 -2.170136e+000  0.000000e+000
      vertex  1.308855e+000 -2.418553e+000  0.000000e+000
    endloop
  endfacet
  facet normal -5.469480e-001  8.371665e-001  0.000000e+000
    outer loop
      vertex  1.689085e+000 -2.170136e+000  2.600000e+001
      vertex  1.308855e+000 -2.418553e+000  0.000000e+000
      vertex  1.308855e+000 -2.418553e+000  2.600000e+001
    endloop
  endfacet
  facet normal -4.016954e-001  9.157734e-001  0.000000e+000
    outer loop
      vertex  1.308855e+000 -2.418553e+000  2.600000e+001
      vertex  1.308855e+000 -2.418553e+000  0.000000e+000
      vertex  8.929235e-001 -2.600997e+000  0.000000e+000
    endloop
  endfacet
  facet normal -4.016954e-001  9.157734e-001  0.000000e+000
    outer loop
      vertex  1.308855e+000 -2.418553e+000  2.600000e+001
      vertex  8.929235e-001 -2.600997e+000  0.000000e+000
      vertex  8.929235e-001 -2.600997e+000  2.600000e+001
    endloop
  endfacet
  facet normal -2.454856e-001  9.694002e-001  0.000000e+000
    outer loop
      vertex  8.929235e-001 -2.600997e+000  2.600000e+001
      vertex  8.929235e-001 -2.600997e+000  0.000000e+000
      vertex  4.526351e-001 -2.712494e+000  0.000000e+000
    endloop
  endfacet
  facet normal -2.454856e-001  9.694002e-001  0.000000e+000
    outer loop
      vertex  8.929235e-001 -2.600997e+000  2.600000e+001
      vertex  4.526351e-001 -2.712494e+000  0.000000e+000
      vertex  4.526351e-001 -2.712494e+000  2.600000e+001
    endloop
  endfacet
  facet normal -8.257920e-002  9.965845e-001  0.000000e+000
    outer loop
      vertex  4.526351e-001 -2.712494e+000  2.600000e+001
      vertex  4.526351e-001 -2.712494e+000  0.000000e+000
      vertex -1.558012e-015 -2.750000e+000  0.000000e+000
    endloop
  endfacet
  facet normal -8.257920e-002  9.965845e-001  0.000000e+000
    outer loop
      vertex  4.526351e-001 -2.712494e+000  2.600000e+001
      vertex -1.558012e-015 -2.750000e+000  0.000000e+000
      vertex -1.558012e-015 -2.750000e+000  2.600000e+001
    endloop
  endfacet
  facet normal  6.037876e-002  9.981756e-001  0.000000e+000
    outer loop
      vertex  0.000000e+000  5.250000e+000  0.000000e+000
      vertex  0.000000e+000  5.250000e+000  2.600000e+001
      vertex  6.328176e-001  5.211721e+000  0.000000e+000
    endloop
  endfacet
  facet normal  6.037876e-002  9.981756e-001  -0.000000e+000
    outer loop
      vertex  6.328176e-001  5.211721e+000  0.000000e+000
      vertex  0.000000e+000  5.250000e+000  2.600000e+001
      vertex  6.328176e-001  5.211721e+000  2.600000e+001
    endloop
  endfacet
  facet normal  1.802548e-001  9.836199e-001  0.000000e+000
    outer loop
      vertex  6.328176e-001  5.211721e+000  0.000000e+000
      vertex  6.328176e-001  5.211721e+000  2.600000e+001
      vertex  1.256407e+000  5.097445e+000  0.000000e+000
    endloop
  endfacet
  facet normal  1.802548e-001  9.836199e-001  -0.000000e+000
    outer loop
      vertex  1.256407e+000  5.097445e+000  0.000000e+000
      vertex  6.328176e-001  5.211721e+000  2.600000e+001
      vertex  1.256407e+000  5.097445e+000  2.600000e+001
    endloop
  endfacet
  facet normal  2.975029e-001  9.547209e-001  0.000000e+000
    outer loop
      vertex  1.256407e+000  5.097445e+000  0.000000e+000
      vertex  1.256407e+000  5.097445e+000  2.600000e+001
      vertex  1.861676e+000  4.908835e+000  0.000000e+000
    endloop
  endfacet
  facet normal  2.975029e-001  9.547209e-001  -0.000000e+000
    outer loop
      vertex  1.861676e+000  4.908835e+000  0.000000e+000
      vertex  1.256407e+000  5.097445e+000  2.600000e+001
      vertex  1.861676e+000  4.908835e+000  2.600000e+001
    endloop
  endfacet
  facet normal  4.104132e-001  9.118997e-001  0.000000e+000
    outer loop
      vertex  1.861676e+000  4.908835e+000  0.000000e+000
      vertex  1.861676e+000  4.908835e+000  2.600000e+001
      vertex  2.439797e+000  4.648644e+000  0.000000e+000
    endloop
  endfacet
  facet normal  4.104132e-001  9.118997e-001  -0.000000e+000
    outer loop
      vertex  2.439797e+000  4.648644e+000  0.000000e+000
      vertex  1.861676e+000  4.908835e+000  2.600000e+001
      vertex  2.439797e+000  4.648644e+000  2.600000e+001
    endloop
  endfacet
  facet normal  5.173376e-001  8.557814e-001  0.000000e+000
    outer loop
      vertex  2.439797e+000  4.648644e+000  0.000000e+000
      vertex  2.439797e+000  4.648644e+000  2.600000e+001
      vertex  2.982340e+000  4.320665e+000  0.000000e+000
    endloop
  endfacet
  facet normal  5.173376e-001  8.557814e-001  -0.000000e+000
    outer loop
      vertex  2.982340e+000  4.320665e+000  0.000000e+000
      vertex  2.439797e+000  4.648644e+000  2.600000e+001
      vertex  2.982340e+000  4.320665e+000  2.600000e+001
    endloop
  endfacet
  facet normal  6.167187e-001  7.871836e-001  0.000000e+000
    outer loop
      vertex  2.982340e+000  4.320665e+000  0.000000e+000
      vertex  2.982340e+000  4.320665e+000  2.600000e+001
      vertex  3.481394e+000  3.929682e+000  0.000000e+000
    endloop
  endfacet
  facet normal  6.167187e-001  7.871836e-001  -0.000000e+000
    outer loop
      vertex  3.481394e+000  3.929682e+000  0.000000e+000
      vertex  2.982340e+000  4.320665e+000  2.600000e+001
      vertex  3.481394e+000  3.929682e+000  2.600000e+001
    endloop
  endfacet
  facet normal  7.071068e-001  7.071068e-001  0.000000e+000
    outer loop
      vertex  3.481394e+000  3.929682e+000  0.000000e+000
      vertex  3.481394e+000  3.929682e+000  2.600000e+001
      vertex  3.929682e+000  3.481394e+000  0.000000e+000
    endloop
  endfacet
  facet normal  7.071068e-001  7.071068e-001  -0.000000e+000
    outer loop
      vertex  3.929682e+000  3.481394e+000  0.000000e+000
      vertex  3.481394e+000  3.929682e+000  2.600000e+001
      vertex  3.929682e+000  3.481394e+000  2.600000e+001
    endloop
  endfacet
  facet normal  7.871836e-001  6.167187e-001  0.000000e+000
    outer loop
      vertex  3.929682e+000  3.481394e+000  0.000000e+000
      vertex  3.929682e+000  3.481394e+000  2.600000e+001
      vertex  4.320665e+000  2.982340e+000  0.000000e+000
    endloop
  endfacet
  facet normal  7.871836e-001  6.167187e-001  -0.000000e+000
    outer loop
      vertex  4.320665e+000  2.982340e+000  0.000000e+000
      vertex  3.929682e+000  3.481394e+000  2.600000e+001
      vertex  4.320665e+000  2.982340e+000  2.600000e+001
    endloop
  endfacet
  facet normal  8.557814e-001  5.173376e-001  0.000000e+000
    outer loop
      vertex  4.320665e+000  2.982340e+000  0.000000e+000
      vertex  4.320665e+000  2.982340e+000  2.600000e+001
      vertex  4.648644e+000  2.439797e+000  0.000000e+000
    endloop
  endfacet
  facet normal  8.557814e-001  5.173376e-001  -0.000000e+000
    outer loop
      vertex  4.648644e+000  2.439797e+000  0.000000e+000
      vertex  4.320665e+000  2.982340e+000  2.600000e+001
      vertex  4.648644e+000  2.439797e+000  2.600000e+001
    endloop
  endfacet
  facet normal  9.118997e-001  4.104132e-001  0.000000e+000
    outer loop
      vertex  4.648644e+000  2.439797e+000  0.000000e+000
      vertex  4.648644e+000  2.439797e+000  2.600000e+001
      vertex  4.908835e+000  1.861676e+000  0.000000e+000
    endloop
  endfacet
  facet normal  9.118997e-001  4.104132e-001  -0.000000e+000
    outer loop
      vertex  4.908835e+000  1.861676e+000  0.000000e+000
      vertex  4.648644e+000  2.439797e+000  2.600000e+001
      vertex  4.908835e+000  1.861676e+000  2.600000e+001
    endloop
  endfacet
  facet normal  9.547209e-001  2.975029e-001  0.000000e+000
    outer loop
      vertex  4.908835e+000  1.861676e+000  0.000000e+000
      vertex  4.908835e+000  1.861676e+000  2.600000e+001
      vertex  5.097445e+000  1.256407e+000  0.000000e+000
    endloop
  endfacet
  facet normal  9.547209e-001  2.975029e-001  -0.000000e+000
    outer loop
      vertex  5.097445e+000  1.256407e+000  0.000000e+000
      vertex  4.908835e+000  1.861676e+000  2.600000e+001
      vertex  5.097445e+000  1.256407e+000  2.600000e+001
    endloop
  endfacet
  facet normal  9.836199e-001  1.802548e-001  0.000000e+000
    outer loop
      vertex  5.097445e+000  1.256407e+000  0.000000e+000
      vertex  5.097445e+000  1.256407e+000  2.600000e+001
      vertex  5.211721e+000  6.328176e-001  0.000000e+000
    endloop
  endfacet
  facet normal  9.836199e-001  1.802548e-001  -0.000000e+000
    outer loop
      vertex  5.211721e+000  6.328176e-001  0.000000e+000
      vertex  5.097445e+000  1.256407e+000  2.600000e+001
      vertex  5.211721e+000  6.328176e-001  2.600000e+001
    endloop
  endfacet
  facet normal  9.981756e-001  6.037876e-002  0.000000e+000
    outer loop
      vertex  5.211721e+000  6.328176e-001  0.000000e+000
      vertex  5.211721e+000  6.328176e-001  2.600000e+001
      vertex  5.250000e+000 -9.643775e-016  0.000000e+000
    endloop
  endfacet
  facet normal  9.981756e-001  6.037876e-002  -0.000000e+000
    outer loop
      vertex  5.250000e+000 -9.643775e-016  0.000000e+000
      vertex  5.211721e+000  6.328176e-001  2.600000e+001
      vertex  5.250000e+000 -9.643775e-016  2.600000e+001
    endloop
  endfacet
  facet normal  9.981756e-001 -6.037876e-002  0.000000e+000
    outer loop
      vertex  5.250000e+000 -9.643775e-016  0.000000e+000
      vertex  5.250000e+000 -9.643775e-016  2.600000e+001
      vertex  5.211721e+000 -6.328176e-001  0.000000e+000
    endloop
  endfacet
  facet normal  9.981756e-001 -6.037876e-002  0.000000e+000
    outer loop
      vertex  5.211721e+000 -6.328176e-001  0.000000e+000
      vertex  5.250000e+000 -9.643775e-016  2.600000e+001
      vertex  5.211721e+000 -6.328176e-001  2.600000e+001
    endloop
  endfacet
  facet normal  9.836199e-001 -1.802548e-001  0.000000e+000
    outer loop
      vertex  5.211721e+000 -6.328176e-001  0.000000e+000
      vertex  5.211721e+000 -6.328176e-001  2.600000e+001
      vertex  5.097445e+000 -1.256407e+000  0.000000e+000
    endloop
  endfacet
  facet normal  9.836199e-001 -1.802548e-001  0.000000e+000
    outer loop
      vertex  5.097445e+000 -1.256407e+000  0.000000e+000
      vertex  5.211721e+000 -6.328176e-001  2.600000e+001
      vertex  5.097445e+000 -1.256407e+000  2.600000e+001
    endloop
  endfacet
  facet normal  9.547209e-001 -2.975029e-001  0.000000e+000
    outer loop
      vertex  5.097445e+000 -1.256407e+000  0.000000e+000
      vertex  5.097445e+000 -1.256407e+000  2.600000e+001
      vertex  4.908835e+000 -1.861676e+000  0.000000e+000
    endloop
  endfacet
  facet normal  9.547209e-001 -2.975029e-001  0.000000e+000
    outer loop
      vertex  4.908835e+000 -1.861676e+000  0.000000e+000
      vertex  5.097445e+000 -1.256407e+000  2.600000e+001
      vertex  4.908835e+000 -1.861676e+000  2.600000e+001
    endloop
  endfacet
  facet normal  9.118997e-001 -4.104132e-001  0.000000e+000
    outer loop
      vertex  4.908835e+000 -1.861676e+000  0.000000e+000
      vertex  4.908835e+000 -1.861676e+000  2.600000e+001
      vertex  4.648644e+000 -2.439797e+000  0.000000e+000
    endloop
  endfacet
  facet normal  9.118997e-001 -4.104132e-001  0.000000e+000
    outer loop
      vertex  4.648644e+000 -2.439797e+000  0.000000e+000
      vertex  4.908835e+000 -1.861676e+000  2.600000e+001
      vertex  4.648644e+000 -2.439797e+000  2.600000e+001
    endloop
  endfacet
  facet normal  8.557814e-001 -5.173376e-001  0.000000e+000
    outer loop
      vertex  4.648644e+000 -2.439797e+000  0.000000e+000
      vertex  4.648644e+000 -2.439797e+000  2.600000e+001
      vertex  4.320665e+000 -2.982340e+000  0.000000e+000
    endloop
  endfacet
  facet normal  8.557814e-001 -5.173376e-001  0.000000e+000
    outer loop
      vertex  4.320665e+000 -2.982340e+000  0.000000e+000
      vertex  4.648644e+000 -2.439797e+000  2.600000e+001
      vertex  4.320665e+000 -2.982340e+000  2.600000e+001
    endloop
  endfacet
  facet normal  7.871836e-001 -6.167187e-001  0.000000e+000
    outer loop
      vertex  4.320665e+000 -2.982340e+000  0.000000e+000
      vertex  4.320665e+000 -2.982340e+000  2.600000e+001
      vertex  3.929682e+000 -3.481394e+000  0.000000e+000
    endloop
  endfacet
  facet normal  7.871836e-001 -6.167187e-001  0.000000e+000
    outer loop
      vertex  3.929682e+000 -3.481394e+000  0.000000e+000
      vertex  4.320665e+000 -2.982340e+000  2.600000e+001
      vertex  3.929682e+000 -3.481394e+000  2.600000e+001
    endloop
  endfacet
  facet normal  7.071068e-001 -7.071068e-001  0.000000e+000
    outer loop
      vertex  3.929682e+000 -3.481394e+000  0.000000e+000
      vertex  3.929682e+000 -3.481394e+000  2.600000e+001
      vertex  3.481394e+000 -3.929682e+000  0.000000e+000
    endloop
  endfacet
  facet normal  7.071068e-001 -7.071068e-001  0.000000e+000
    outer loop
      vertex  3.481394e+000 -3.929682e+000  0.000000e+000
      vertex  3.929682e+000 -3.481394e+000  2.600000e+001
      vertex  3.481394e+000 -3.929682e+000  2.600000e+001
    endloop
  endfacet
  facet normal  6.167187e-001 -7.871836e-001  0.000000e+000
    outer loop
      vertex  3.481394e+000 -3.929682e+000  0.000000e+000
      vertex  3.481394e+000 -3.929682e+000  2.600000e+001
      vertex  2.982340e+000 -4.320665e+000  0.000000e+000
    endloop
  endfacet
  facet normal  6.167187e-001 -7.871836e-001  0.000000e+000
    outer loop
      vertex  2.982340e+000 -4.320665e+000  0.000000e+000
      vertex  3.481394e+000 -3.929682e+000  2.600000e+001
      vertex  2.982340e+000 -4.320665e+000  2.600000e+001
    endloop
  endfacet
  facet normal  5.173376e-001 -8.557814e-001  0.000000e+000
    outer loop
      vertex  2.982340e+000 -4.320665e+000  0.000000e+000
      vertex  2.982340e+000 -4.320665e+000  2.600000e+001
      vertex  2.439797e+000 -4.648644e+000  0.000000e+000
    endloop
  endfacet
  facet normal  5.173376e-001 -8.557814e-001  0.000000e+000
    outer loop
      vertex  2.439797e+000 -4.648644e+000  0.000000e+000
      vertex  2.982340e+000 -4.320665e+000  2.600000e+001
      vertex  2.439797e+000 -4.648644e+000  2.600000e+001
    endloop
  endfacet
  facet normal  4.104132e-001 -9.118997e-001  0.000000e+000
    outer loop
      vertex  2.439797e+000 -4.648644e+000  0.000000e+000
      vertex  2.439797e+000 -4.648644e+000  2.600000e+001
      vertex  1.861676e+000 -4.908835e+000  0.000000e+000
    endloop
  endfacet
  facet normal  4.104132e-001 -9.118997e-001  0.000000e+000
    outer loop
      vertex  1.861676e+000 -4.908835e+000  0.000000e+000
      vertex  2.439797e+000 -4.648644e+000  2.600000e+001
      vertex  1.861676e+000 -4.908835e+000  2.600000e+001
    endloop
  endfacet
  facet normal  2.975029e-001 -9.547209e-001  0.000000e+000
    outer loop
      vertex  1.861676e+000 -4.908835e+000  0.000000e+000
      vertex  1.861676e+000 -4.908835e+000  2.600000e+001
      vertex  1.256407e+000 -5.097445e+000  0.000000e+000
    endloop
  endfacet
  facet normal  2.975029e-001 -9.547209e-001  0.000000e+000
    outer loop
      vertex  1.256407e+000 -5.097445e+000  0.000000e+000
      vertex  1.861676e+000 -4.908835e+000  2.600000e+001
      vertex  1.256407e+000 -5.097445e+000  2.600000e+001
    endloop
  endfacet
  facet normal  1.802548e-001 -9.836199e-001  0.000000e+000
    outer loop
      vertex  1.256407e+000 -5.097445e+000  0.000000e+000
      vertex  1.256407e+000 -5.097445e+000  2.600000e+001
      vertex  6.328176e-001 -5.211721e+000  0.000000e+000
    endloop
  endfacet
  facet normal  1.802548e-001 -9.836199e-001  0.000000e+000
    outer loop
      vertex  6.328176e-001 -5.211721e+000  0.000000e+000
      vertex  1.256407e+000 -5.097445e+000  2.600000e+001
      vertex  6.328176e-001 -5.211721e+000  2.600000e+001
    endloop
  endfacet
  facet normal  6.037876e-002 -9.981756e-001  0.000000e+000
    outer loop
      vertex  6.328176e-001 -5.211721e+000  0.000000e+000
      vertex  6.328176e-001 -5.211721e+000  2.600000e+001
      vertex -6.429183e-016 -5.250000e+000  0.000000e+000
    endloop
  endfacet
  facet normal  6.037876e-002 -9.981756e-001  0.000000e+000
    outer loop
      vertex -6.429183e-016 -5.250000e+000  0.000000e+000
      vertex  6.328176e-001 -5.211721e+000  2.600000e+001
      vertex -6.429183e-016 -5.250000e+000  2.600000e+001
    endloop
  endfacet
  facet normal -6.037876e-002 -9.981756e-001  -0.000000e+000
    outer loop
      vertex -6.429183e-016 -5.250000e+000  0.000000e+000
      vertex -6.429183e-016 -5.250000e+000  2.600000e+001
      vertex -6.328176e-001 -5.211721e+000  0.000000e+000
    endloop
  endfacet
  facet normal -6.037876e-002 -9.981756e-001  0.000000e+000
    outer loop
      vertex -6.328176e-001 -5.211721e+000  0.000000e+000
      vertex -6.429183e-016 -5.250000e+000  2.600000e+001
      vertex -6.328176e-001 -5.211721e+000  2.600000e+001
    endloop
  endfacet
  facet normal -1.802548e-001 -9.836199e-001  -0.000000e+000
    outer loop
      vertex -6.328176e-001 -5.211721e+000  0.000000e+000
      vertex -6.328176e-001 -5.211721e+000  2.600000e+001
      vertex -1.256407e+000 -5.097445e+000  0.000000e+000
    endloop
  endfacet
  facet normal -1.802548e-001 -9.836199e-001  0.000000e+000
    outer loop
      vertex -1.256407e+000 -5.097445e+000  0.000000e+000
      vertex -6.328176e-001 -5.211721e+000  2.600000e+001
      vertex -1.256407e+000 -5.097445e+000  2.600000e+001
    endloop
  endfacet
  facet normal -2.975029e-001 -9.547209e-001  -0.000000e+000
    outer loop
      vertex -1.256407e+000 -5.097445e+000  0.000000e+000
      vertex -1.256407e+000 -5.097445e+000  2.600000e+001
      vertex -1.861676e+000 -4.908835e+000  0.000000e+000
    endloop
  endfacet
  facet normal -2.975029e-001 -9.547209e-001  0.000000e+000
    outer loop
      vertex -1.861676e+000 -4.908835e+000  0.000000e+000
      vertex -1.256407e+000 -5.097445e+000  2.600000e+001
      vertex -1.861676e+000 -4.908835e+000  2.600000e+001
    endloop
  endfacet
  facet normal -4.104132e-001 -9.118997e-001  -0.000000e+000
    outer loop
      vertex -1.861676e+000 -4.908835e+000  0.000000e+000
      vertex -1.861676e+000 -4.908835e+000  2.600000e+001
      vertex -2.439797e+000 -4.648644e+000  0.000000e+000
    endloop
  endfacet
  facet normal -4.104132e-001 -9.118997e-001  0.000000e+000
    outer loop
      vertex -2.439797e+000 -4.648644e+000  0.000000e+000
      vertex -1.861676e+000 -4.908835e+000  2.600000e+001
      vertex -2.439797e+000 -4.648644e+000  2.600000e+001
    endloop
  endfacet
  facet normal -5.173376e-001 -8.557814e-001  -0.000000e+000
    outer loop
      vertex -2.439797e+000 -4.648644e+000  0.000000e+000
      vertex -2.439797e+000 -4.648644e+000  2.600000e+001
      vertex -2.982340e+000 -4.320665e+000  0.000000e+000
    endloop
  endfacet
  facet normal -5.173376e-001 -8.557814e-001  0.000000e+000
    outer loop
      vertex -2.982340e+000 -4.320665e+000  0.000000e+000
      vertex -2.439797e+000 -4.648644e+000  2.600000e+001
      vertex -2.982340e+000 -4.320665e+000  2.600000e+001
    endloop
  endfacet
  facet normal -6.167187e-001 -7.871836e-001  -0.000000e+000
    outer loop
      vertex -2.982340e+000 -4.320665e+000  0.000000e+000
      vertex -2.982340e+000 -4.320665e+000  2.600000e+001
      vertex -3.481394e+000 -3.929682e+000  0.000000e+000
    endloop
  endfacet
  facet normal -6.167187e-001 -7.871836e-001  0.000000e+000
    outer loop
      vertex -3.481394e+000 -3.929682e+000  0.000000e+000
      vertex -2.982340e+000 -4.320665e+000  2.600000e+001
      vertex -3.481394e+000 -3.929682e+000  2.600000e+001
    endloop
  endfacet
  facet normal -7.071068e-001 -7.071068e-001  -0.000000e+000
    outer loop
      vertex -3.481394e+000 -3.929682e+000  0.000000e+000
      vertex -3.481394e+000 -3.929682e+000  2.600000e+001
      vertex -3.929682e+000 -3.481394e+000  0.000000e+000
    endloop
  endfacet
  facet normal -7.071068e-001 -7.071068e-001  0.000000e+000
    outer loop
      vertex -3.929682e+000 -3.481394e+000  0.000000e+000
      vertex -3.481394e+000 -3.929682e+000  2.600000e+001
      vertex -3.929682e+000 -3.481394e+000  2.600000e+001
    endloop
  endfacet
  facet normal -7.871836e-001 -6.167187e-001  -0.000000e+000
    outer loop
      vertex -3.929682e+000 -3.481394e+000  0.000000e+000
      vertex -3.929682e+000 -3.481394e+000  2.600000e+001
      vertex -4.320665e+000 -2.982340e+000  0.000000e+000
    endloop
  endfacet
  facet normal -7.871836e-001 -6.167187e-001  0.000000e+000
    outer loop
      vertex -4.320665e+000 -2.982340e+000  0.000000e+000
      vertex -3.929682e+000 -3.481394e+000  2.600000e+001
      vertex -4.320665e+000 -2.982340e+000  2.600000e+001
    endloop
  endfacet
  facet normal -8.557814e-001 -5.173376e-001  -0.000000e+000
    outer loop
      vertex -4.320665e+000 -2.982340e+000  0.000000e+000
      vertex -4.320665e+000 -2.982340e+000  2.600000e+001
      vertex -4.648644e+000 -2.439797e+000  0.000000e+000
    endloop
  endfacet
  facet normal -8.557814e-001 -5.173376e-001  0.000000e+000
    outer loop
      vertex -4.648644e+000 -2.439797e+000  0.000000e+000
      vertex -4.320665e+000 -2.982340e+000  2.600000e+001
      vertex -4.648644e+000 -2.439797e+000  2.600000e+001
    endloop
  endfacet
  facet normal -9.118997e-001 -4.104132e-001  -0.000000e+000
    outer loop
      vertex -4.648644e+000 -2.439797e+000  0.000000e+000
      vertex -4.648644e+000 -2.439797e+000  2.600000e+001
      vertex -4.908835e+000 -1.861676e+000  0.000000e+000
    endloop
  endfacet
  facet normal -9.118997e-001 -4.104132e-001  0.000000e+000
    outer loop
      vertex -4.908835e+000 -1.861676e+000  0.000000e+000
      vertex -4.648644e+000 -2.439797e+000  2.600000e+001
      vertex -4.908835e+000 -1.861676e+000  2.600000e+001
    endloop
  endfacet
  facet normal -9.547209e-001 -2.975029e-001  -0.000000e+000
    outer loop
      vertex -4.908835e+000 -1.861676e+000  0.000000e+000
      vertex -4.908835e+000 -1.861676e+000  2.600000e+001
      vertex -5.097445e+000 -1.256407e+000  0.000000e+000
    endloop
  endfacet
  facet normal -9.547209e-001 -2.975029e-001  0.000000e+000
    outer loop
      vertex -5.097445e+000 -1.256407e+000  0.000000e+000
      vertex -4.908835e+000 -1.861676e+000  2.600000e+001
      vertex -5.097445e+000 -1.256407e+000  2.600000e+001
    endloop
  endfacet
  facet normal -9.836199e-001 -1.802548e-001  -0.000000e+000
    outer loop
      vertex -5.097445e+000 -1.256407e+000  0.000000e+000
      vertex -5.097445e+000 -1.256407e+000  2.600000e+001
      vertex -5.211721e+000 -6.328176e-001  0.000000e+000
    endloop
  endfacet
  facet normal -9.836199e-001 -1.802548e-001  0.000000e+000
    outer loop
      vertex -5.211721e+000 -6.328176e-001  0.000000e+000
      vertex -5.097445e+000 -1.256407e+000  2.600000e+001
      vertex -5.211721e+000 -6.328176e-001  2.600000e+001
    endloop
  endfacet
  facet normal -9.981756e-001 -6.037876e-002  -0.000000e+000
    outer loop
      vertex -5.211721e+000 -6.328176e-001  0.000000e+000
      vertex -5.211721e+000 -6.328176e-001  2.600000e+001
      vertex -5.250000e+000  3.214592e-016  0.000000e+000
    endloop
  endfacet
  facet normal -9.981756e-001 -6.037876e-002  0.000000e+000
    outer loop
      vertex -5.250000e+000  3.214592e-016  0.000000e+000
      vertex -5.211721e+000 -6.328176e-001  2.600000e+001
      vertex -5.250000e+000  3.214592e-016  2.600000e+001
    endloop
  endfacet
  facet normal -9.981756e-001  6.037876e-002  0.000000e+000
    outer loop
      vertex -5.250000e+000  3.214592e-016  0.000000e+000
      vertex -5.250000e+000  3.214592e-016  2.600000e+001
      vertex -5.211721e+000  6.328176e-001  0.000000e+000
    endloop
  endfacet
  facet normal -9.981756e-001  6.037876e-002  0.000000e+000
    outer loop
      vertex -5.211721e+000  6.328176e-001  0.000000e+000
      vertex -5.250000e+000  3.214592e-016  2.600000e+001
      vertex -5.211721e+000  6.328176e-001  2.600000e+001
    endloop
  endfacet
  facet normal -9.836199e-001  1.802548e-001  0.000000e+000
    outer loop
      vertex -5.211721e+000  6.328176e-001  0.000000e+000
      vertex -5.211721e+000  6.328176e-001  2.600000e+001
      vertex -5.097445e+000  1.256407e+000  0.000000e+000
    endloop
  endfacet
  facet normal -9.836199e-001  1.802548e-001  0.000000e+000
    outer loop
      vertex -5.097445e+000  1.256407e+000  0.000000e+000
      vertex -5.211721e+000  6.328176e-001  2.600000e+001
      vertex -5.097445e+000  1.256407e+000  2.600000e+001
    endloop
  endfacet
  facet normal -9.547209e-001  2.975029e-001  0.000000e+000
    outer loop
      vertex -5.097445e+000  1.256407e+000  0.000000e+000
      vertex -5.097445e+000  1.256407e+000  2.600000e+001
      vertex -4.908835e+000  1.861676e+000  0.000000e+000
    endloop
  endfacet
  facet normal -9.547209e-001  2.975029e-001  0.000000e+000
    outer loop
      vertex -4.908835e+000  1.861676e+000  0.000000e+000
      vertex -5.097445e+000  1.256407e+000  2.600000e+001
      vertex -4.908835e+000  1.861676e+000  2.600000e+001
    endloop
  endfacet
  facet normal -9.118997e-001  4.104132e-001  0.000000e+000
    outer loop
      vertex -4.908835e+000  1.861676e+000  0.000000e+000
      vertex -4.908835e+000  1.861676e+000  2.600000e+001
      vertex -4.648644e+000  2.439797e+000  0.000000e+000
    endloop
  endfacet
  facet normal -9.118997e-001  4.104132e-001  0.000000e+000
    outer loop
      vertex -4.648644e+000  2.439797e+000  0.000000e+000
      vertex -4.908835e+000  1.861676e+000  2.600000e+001
      vertex -4.648644e+000  2.439797e+000  2.600000e+001
    endloop
  endfacet
  facet normal -8.557814e-001  5.173376e-001  0.000000e+000
    outer loop
      vertex -4.648644e+000  2.439797e+000  0.000000e+000
      vertex -4.648644e+000  2.439797e+000  2.600000e+001
      vertex -4.320665e+000  2.982340e+000  0.000000e+000
    endloop
  endfacet
  facet normal -8.557814e-001  5.173376e-001  0.000000e+000
    outer loop
      vertex -4.320665e+000  2.982340e+000  0.000000e+000
      vertex -4.648644e+000  2.439797e+000  2.600000e+001
      vertex -4.320665e+000  2.982340e+000  2.600000e+001
    endloop
  endfacet
  facet normal -7.871836e-001  6.167187e-001  0.000000e+000
    outer loop
      vertex -4.320665e+000  2.982340e+000  0.000000e+000
      vertex -4.320665e+000  2.982340e+000  2.600000e+001
      vertex -3.929682e+000  3.481394e+000  0.000000e+000
    endloop
  endfacet
  facet normal -7.871836e-001  6.167187e-001  0.000000e+000
    outer loop
      vertex -3.929682e+000  3.481394e+000  0.000000e+000
      vertex -4.320665e+000  2.982340e+000  2.600000e+001
      vertex -3.929682e+000  3.481394e+000  2.600000e+001
    endloop
  endfacet
  facet normal -7.071068e-001  7.071068e-001  0.000000e+000
    outer loop
      vertex -3.929682e+000  3.481394e+000  0.000000e+000
      vertex -3.929682e+000  3.481394e+000  2.600000e+001
      vertex -3.481394e+000  3.929682e+000  0.000000e+000
    endloop
  endfacet
  facet normal -7.071068e-001  7.071068e-001  0.000000e+000
    outer loop
      vertex -3.481394e+000  3.929682e+000  0.000000e+000
      vertex -3.929682e+000  3.481394e+000  2.600000e+001
      vertex -3.481394e+000  3.929682e+000  2.600000e+001
    endloop
  endfacet
  facet normal -6.167187e-001  7.871836e-001  0.000000e+000
    outer loop
      vertex -3.481394e+000  3.929682e+000  0.000000e+000
      vertex -3.481394e+000  3.929682e+000  2.600000e+001
      vertex -2.982340e+000  4.320665e+000  0.000000e+000
    endloop
  endfacet
  facet normal -6.167187e-001  7.871836e-001  0.000000e+000
    outer loop
      vertex -2.982340e+000  4.320665e+000  0.000000e+000
      vertex -3.481394e+000  3.929682e+000  2.600000e+001
      vertex -2.982340e+000  4.320665e+000  2.600000e+001
    endloop
  endfacet
  facet normal -5.173376e-001  8.557814e-001  0.000000e+000
    outer loop
      vertex -2.982340e+000  4.320665e+000  0.000000e+000
      vertex -2.982340e+000  4.320665e+000  2.600000e+001
      vertex -2.439797e+000  4.648644e+000  0.000000e+000
    endloop
  endfacet
  facet normal -5.173376e-001  8.557814e-001  0.000000e+000
    outer loop
      vertex -2.439797e+000  4.648644e+000  0.000000e+000
      vertex -2.982340e+000  4.320665e+000  2.600000e+001
      vertex -2.439797e+000  4.648644e+000  2.600000e+001
    endloop
  endfacet
  facet normal -4.104132e-001  9.118997e-001  0.000000e+000
    outer loop
      vertex -2.439797e+000  4.648644e+000  0.000000e+000
      vertex -2.439797e+000  4.648644e+000  2.600000e+001
      vertex -1.861676e+000  4.908835e+000  0.000000e+000
    endloop
  endfacet
  facet normal -4.104132e-001  9.118997e-001  0.000000e+000
    outer loop
      vertex -1.861676e+000  4.908835e+000  0.000000e+000
      vertex -2.439797e+000  4.648644e+000  2.600000e+001
      vertex -1.861676e+000  4.908835e+000  2.600000e+001
    endloop
  endfacet
  facet normal -2.975029e-001  9.547209e-001  0.000000e+000
    outer loop
      vertex -1.861676e+000  4.908835e+000  0.000000e+000
      vertex -1.861676e+000  4.908835e+000  2.600000e+001
      vertex -1.256407e+000  5.097445e+000  0.000000e+000
    endloop
  endfacet
  facet normal -2.975029e-001  9.547209e-001  0.000000e+000
    outer loop
      vertex -1.256407e+000  5.097445e+000  0.000000e+000
      vertex -1.861676e+000  4.908835e+000  2.600000e+001
      vertex -1.256407e+000  5.097445e+000  2.600000e+001
    endloop
  endfacet
  facet normal -1.802548e-001  9.836199e-001  0.000000e+000
    outer loop
      vertex -1.256407e+000  5.097445e+000  0.000000e+000
      vertex -1.256407e+000  5.097445e+000  2.600000e+001
      vertex -6.328176e-001  5.211721e+000  0.000000e+000
    endloop
  endfacet
  facet normal -1.802548e-001  9.836199e-001  0.000000e+000
    outer loop
      vertex -6.328176e-001  5.211721e+000  0.000000e+000
      vertex -1.256407e+000  5.097445e+000  2.600000e+001
      vertex -6.328176e-001  5.211721e+000  2.600000e+001
    endloop
  endfacet
  facet normal -6.037876e-002  9.981756e-001  0.000000e+000
    outer loop
      vertex -6.328176e-001  5.211721e+000  0.000000e+000
      vertex -6.328176e-001  5.211721e+000  2.600000e+001
      vertex  0.000000e+000  5.250000e+000  0.000000e+000
    endloop
  endfacet
  facet normal -6.037876e-002  9.981756e-001  0.000000e+000
    outer loop
      vertex  0.000000e+000  5.250000e+000  0.000000e+000
      vertex -6.328176e-001  5.211721e+000  2.600000e+001
      vertex  0.000000e+000  5.250000e+000  2.600000e+001
    endloop
  endfacet
endsolid CATIA STL
